<?xml version="1.0" encoding="utf-8" standalone="no"?>
<!DOCTYPE svg PUBLIC "-//W3C//DTD SVG 1.1//EN"
  "http://www.w3.org/Graphics/SVG/1.1/DTD/svg11.dtd">
<svg xmlns:xlink="http://www.w3.org/1999/xlink" width="705.485147pt" height="421.089pt" viewBox="0 0 705.485147 421.089" xmlns="http://www.w3.org/2000/svg" version="1.1">
 <metadata>
  <rdf:RDF xmlns:dc="http://purl.org/dc/elements/1.1/" xmlns:cc="http://creativecommons.org/ns#" xmlns:rdf="http://www.w3.org/1999/02/22-rdf-syntax-ns#">
   <cc:Work>
    <dc:type rdf:resource="http://purl.org/dc/dcmitype/StillImage"/>
    <dc:date>2026-02-03T22:57:15.862105</dc:date>
    <dc:format>image/svg+xml</dc:format>
    <dc:creator>
     <cc:Agent>
      <dc:title>Matplotlib v3.10.7, https://matplotlib.org/</dc:title>
     </cc:Agent>
    </dc:creator>
   </cc:Work>
  </rdf:RDF>
 </metadata>
 <defs>
  <style type="text/css">*{stroke-linejoin: round; stroke-linecap: butt}</style>
 </defs>
 <g id="figure_1">
  <g id="patch_1">
   <path d="M -0 421.089 
L 705.485147 421.089 
L 705.485147 0 
L -0 0 
z
" style="fill: #ffffff"/>
  </g>
  <g id="axes_1">
   <g id="patch_2">
    <path d="M 50.1525 377.052125 
L 630.566786 377.052125 
L 630.566786 48.624125 
L 50.1525 48.624125 
z
" style="fill: #ffffff"/>
   </g>
   <g id="patch_3">
    <path d="M 392.182347 377.052125 
L 651.295867 377.052125 
L 651.295867 48.624125 
L 392.182347 48.624125 
z
" clip-path="url(#p512be488b3)" style="fill: #27ae60; opacity: 0.15; stroke: #27ae60; stroke-linejoin: miter"/>
   </g>
   <g id="matplotlib.axis_1">
    <g id="xtick_1">
     <g id="line2d_1">
      <path d="M 81.246122 377.052125 
L 81.246122 48.624125 
" clip-path="url(#p512be488b3)" style="fill: none; stroke: #b0b0b0; stroke-opacity: 0.3; stroke-width: 0.5; stroke-linecap: square"/>
     </g>
     <g id="line2d_2">
      <defs>
       <path id="me41d0eb0b8" d="M 0 0 
L 0 6 
" style="stroke: #000000"/>
      </defs>
      <g>
       <use xlink:href="#me41d0eb0b8" x="81.246122" y="377.052125" style="stroke: #000000"/>
      </g>
     </g>
     <g id="text_1">
      <!-- 500 -->
      <g transform="translate(71.702372 394.150562) scale(0.1 -0.1)">
       <defs>
        <path id="DejaVuSans-35" d="M 691 4666 
L 3169 4666 
L 3169 4134 
L 1269 4134 
L 1269 2991 
Q 1406 3038 1543 3061 
Q 1681 3084 1819 3084 
Q 2600 3084 3056 2656 
Q 3513 2228 3513 1497 
Q 3513 744 3044 326 
Q 2575 -91 1722 -91 
Q 1428 -91 1123 -41 
Q 819 9 494 109 
L 494 744 
Q 775 591 1075 516 
Q 1375 441 1709 441 
Q 2250 441 2565 725 
Q 2881 1009 2881 1497 
Q 2881 1984 2565 2268 
Q 2250 2553 1709 2553 
Q 1456 2553 1204 2497 
Q 953 2441 691 2322 
L 691 4666 
z
" transform="scale(0.015625)"/>
        <path id="DejaVuSans-30" d="M 2034 4250 
Q 1547 4250 1301 3770 
Q 1056 3291 1056 2328 
Q 1056 1369 1301 889 
Q 1547 409 2034 409 
Q 2525 409 2770 889 
Q 3016 1369 3016 2328 
Q 3016 3291 2770 3770 
Q 2525 4250 2034 4250 
z
M 2034 4750 
Q 2819 4750 3233 4129 
Q 3647 3509 3647 2328 
Q 3647 1150 3233 529 
Q 2819 -91 2034 -91 
Q 1250 -91 836 529 
Q 422 1150 422 2328 
Q 422 3509 836 4129 
Q 1250 4750 2034 4750 
z
" transform="scale(0.015625)"/>
       </defs>
       <use xlink:href="#DejaVuSans-35"/>
       <use xlink:href="#DejaVuSans-30" transform="translate(63.623047 0)"/>
       <use xlink:href="#DejaVuSans-30" transform="translate(127.246094 0)"/>
      </g>
     </g>
    </g>
    <g id="xtick_2">
     <g id="line2d_3">
      <path d="M 184.891531 377.052125 
L 184.891531 48.624125 
" clip-path="url(#p512be488b3)" style="fill: none; stroke: #b0b0b0; stroke-opacity: 0.3; stroke-width: 0.5; stroke-linecap: square"/>
     </g>
     <g id="line2d_4">
      <g>
       <use xlink:href="#me41d0eb0b8" x="184.891531" y="377.052125" style="stroke: #000000"/>
      </g>
     </g>
     <g id="text_2">
      <!-- 600 -->
      <g transform="translate(175.347781 394.150562) scale(0.1 -0.1)">
       <defs>
        <path id="DejaVuSans-36" d="M 2113 2584 
Q 1688 2584 1439 2293 
Q 1191 2003 1191 1497 
Q 1191 994 1439 701 
Q 1688 409 2113 409 
Q 2538 409 2786 701 
Q 3034 994 3034 1497 
Q 3034 2003 2786 2293 
Q 2538 2584 2113 2584 
z
M 3366 4563 
L 3366 3988 
Q 3128 4100 2886 4159 
Q 2644 4219 2406 4219 
Q 1781 4219 1451 3797 
Q 1122 3375 1075 2522 
Q 1259 2794 1537 2939 
Q 1816 3084 2150 3084 
Q 2853 3084 3261 2657 
Q 3669 2231 3669 1497 
Q 3669 778 3244 343 
Q 2819 -91 2113 -91 
Q 1303 -91 875 529 
Q 447 1150 447 2328 
Q 447 3434 972 4092 
Q 1497 4750 2381 4750 
Q 2619 4750 2861 4703 
Q 3103 4656 3366 4563 
z
" transform="scale(0.015625)"/>
       </defs>
       <use xlink:href="#DejaVuSans-36"/>
       <use xlink:href="#DejaVuSans-30" transform="translate(63.623047 0)"/>
       <use xlink:href="#DejaVuSans-30" transform="translate(127.246094 0)"/>
      </g>
     </g>
    </g>
    <g id="xtick_3">
     <g id="line2d_5">
      <path d="M 288.536939 377.052125 
L 288.536939 48.624125 
" clip-path="url(#p512be488b3)" style="fill: none; stroke: #b0b0b0; stroke-opacity: 0.3; stroke-width: 0.5; stroke-linecap: square"/>
     </g>
     <g id="line2d_6">
      <g>
       <use xlink:href="#me41d0eb0b8" x="288.536939" y="377.052125" style="stroke: #000000"/>
      </g>
     </g>
     <g id="text_3">
      <!-- 700 -->
      <g transform="translate(278.993189 394.150562) scale(0.1 -0.1)">
       <defs>
        <path id="DejaVuSans-37" d="M 525 4666 
L 3525 4666 
L 3525 4397 
L 1831 0 
L 1172 0 
L 2766 4134 
L 525 4134 
L 525 4666 
z
" transform="scale(0.015625)"/>
       </defs>
       <use xlink:href="#DejaVuSans-37"/>
       <use xlink:href="#DejaVuSans-30" transform="translate(63.623047 0)"/>
       <use xlink:href="#DejaVuSans-30" transform="translate(127.246094 0)"/>
      </g>
     </g>
    </g>
    <g id="xtick_4">
     <g id="line2d_7">
      <path d="M 392.182347 377.052125 
L 392.182347 48.624125 
" clip-path="url(#p512be488b3)" style="fill: none; stroke: #b0b0b0; stroke-opacity: 0.3; stroke-width: 0.5; stroke-linecap: square"/>
     </g>
     <g id="line2d_8">
      <g>
       <use xlink:href="#me41d0eb0b8" x="392.182347" y="377.052125" style="stroke: #000000"/>
      </g>
     </g>
     <g id="text_4">
      <!-- 800 -->
      <g transform="translate(382.638597 394.150562) scale(0.1 -0.1)">
       <defs>
        <path id="DejaVuSans-38" d="M 2034 2216 
Q 1584 2216 1326 1975 
Q 1069 1734 1069 1313 
Q 1069 891 1326 650 
Q 1584 409 2034 409 
Q 2484 409 2743 651 
Q 3003 894 3003 1313 
Q 3003 1734 2745 1975 
Q 2488 2216 2034 2216 
z
M 1403 2484 
Q 997 2584 770 2862 
Q 544 3141 544 3541 
Q 544 4100 942 4425 
Q 1341 4750 2034 4750 
Q 2731 4750 3128 4425 
Q 3525 4100 3525 3541 
Q 3525 3141 3298 2862 
Q 3072 2584 2669 2484 
Q 3125 2378 3379 2068 
Q 3634 1759 3634 1313 
Q 3634 634 3220 271 
Q 2806 -91 2034 -91 
Q 1263 -91 848 271 
Q 434 634 434 1313 
Q 434 1759 690 2068 
Q 947 2378 1403 2484 
z
M 1172 3481 
Q 1172 3119 1398 2916 
Q 1625 2713 2034 2713 
Q 2441 2713 2670 2916 
Q 2900 3119 2900 3481 
Q 2900 3844 2670 4047 
Q 2441 4250 2034 4250 
Q 1625 4250 1398 4047 
Q 1172 3844 1172 3481 
z
" transform="scale(0.015625)"/>
       </defs>
       <use xlink:href="#DejaVuSans-38"/>
       <use xlink:href="#DejaVuSans-30" transform="translate(63.623047 0)"/>
       <use xlink:href="#DejaVuSans-30" transform="translate(127.246094 0)"/>
      </g>
     </g>
    </g>
    <g id="xtick_5">
     <g id="line2d_9">
      <path d="M 495.827755 377.052125 
L 495.827755 48.624125 
" clip-path="url(#p512be488b3)" style="fill: none; stroke: #b0b0b0; stroke-opacity: 0.3; stroke-width: 0.5; stroke-linecap: square"/>
     </g>
     <g id="line2d_10">
      <g>
       <use xlink:href="#me41d0eb0b8" x="495.827755" y="377.052125" style="stroke: #000000"/>
      </g>
     </g>
     <g id="text_5">
      <!-- 900 -->
      <g transform="translate(486.284005 394.150562) scale(0.1 -0.1)">
       <defs>
        <path id="DejaVuSans-39" d="M 703 97 
L 703 672 
Q 941 559 1184 500 
Q 1428 441 1663 441 
Q 2288 441 2617 861 
Q 2947 1281 2994 2138 
Q 2813 1869 2534 1725 
Q 2256 1581 1919 1581 
Q 1219 1581 811 2004 
Q 403 2428 403 3163 
Q 403 3881 828 4315 
Q 1253 4750 1959 4750 
Q 2769 4750 3195 4129 
Q 3622 3509 3622 2328 
Q 3622 1225 3098 567 
Q 2575 -91 1691 -91 
Q 1453 -91 1209 -44 
Q 966 3 703 97 
z
M 1959 2075 
Q 2384 2075 2632 2365 
Q 2881 2656 2881 3163 
Q 2881 3666 2632 3958 
Q 2384 4250 1959 4250 
Q 1534 4250 1286 3958 
Q 1038 3666 1038 3163 
Q 1038 2656 1286 2365 
Q 1534 2075 1959 2075 
z
" transform="scale(0.015625)"/>
       </defs>
       <use xlink:href="#DejaVuSans-39"/>
       <use xlink:href="#DejaVuSans-30" transform="translate(63.623047 0)"/>
       <use xlink:href="#DejaVuSans-30" transform="translate(127.246094 0)"/>
      </g>
     </g>
    </g>
    <g id="xtick_6">
     <g id="line2d_11">
      <path d="M 599.473163 377.052125 
L 599.473163 48.624125 
" clip-path="url(#p512be488b3)" style="fill: none; stroke: #b0b0b0; stroke-opacity: 0.3; stroke-width: 0.5; stroke-linecap: square"/>
     </g>
     <g id="line2d_12">
      <g>
       <use xlink:href="#me41d0eb0b8" x="599.473163" y="377.052125" style="stroke: #000000"/>
      </g>
     </g>
     <g id="text_6">
      <!-- 1000 -->
      <g transform="translate(586.748163 394.150562) scale(0.1 -0.1)">
       <defs>
        <path id="DejaVuSans-31" d="M 794 531 
L 1825 531 
L 1825 4091 
L 703 3866 
L 703 4441 
L 1819 4666 
L 2450 4666 
L 2450 531 
L 3481 531 
L 3481 0 
L 794 0 
L 794 531 
z
" transform="scale(0.015625)"/>
       </defs>
       <use xlink:href="#DejaVuSans-31"/>
       <use xlink:href="#DejaVuSans-30" transform="translate(63.623047 0)"/>
       <use xlink:href="#DejaVuSans-30" transform="translate(127.246094 0)"/>
       <use xlink:href="#DejaVuSans-30" transform="translate(190.869141 0)"/>
      </g>
     </g>
    </g>
    <g id="xtick_7">
     <g id="line2d_13">
      <defs>
       <path id="m818e5bc023" d="M 0 0 
L 0 3 
" style="stroke: #000000; stroke-width: 0.5"/>
      </defs>
      <g>
       <use xlink:href="#m818e5bc023" x="60.517041" y="377.052125" style="stroke: #000000; stroke-width: 0.5"/>
      </g>
     </g>
    </g>
    <g id="xtick_8">
     <g id="line2d_14">
      <g>
       <use xlink:href="#m818e5bc023" x="101.975204" y="377.052125" style="stroke: #000000; stroke-width: 0.5"/>
      </g>
     </g>
    </g>
    <g id="xtick_9">
     <g id="line2d_15">
      <g>
       <use xlink:href="#m818e5bc023" x="122.704286" y="377.052125" style="stroke: #000000; stroke-width: 0.5"/>
      </g>
     </g>
    </g>
    <g id="xtick_10">
     <g id="line2d_16">
      <g>
       <use xlink:href="#m818e5bc023" x="143.433367" y="377.052125" style="stroke: #000000; stroke-width: 0.5"/>
      </g>
     </g>
    </g>
    <g id="xtick_11">
     <g id="line2d_17">
      <g>
       <use xlink:href="#m818e5bc023" x="164.162449" y="377.052125" style="stroke: #000000; stroke-width: 0.5"/>
      </g>
     </g>
    </g>
    <g id="xtick_12">
     <g id="line2d_18">
      <g>
       <use xlink:href="#m818e5bc023" x="205.620612" y="377.052125" style="stroke: #000000; stroke-width: 0.5"/>
      </g>
     </g>
    </g>
    <g id="xtick_13">
     <g id="line2d_19">
      <g>
       <use xlink:href="#m818e5bc023" x="226.349694" y="377.052125" style="stroke: #000000; stroke-width: 0.5"/>
      </g>
     </g>
    </g>
    <g id="xtick_14">
     <g id="line2d_20">
      <g>
       <use xlink:href="#m818e5bc023" x="247.078776" y="377.052125" style="stroke: #000000; stroke-width: 0.5"/>
      </g>
     </g>
    </g>
    <g id="xtick_15">
     <g id="line2d_21">
      <g>
       <use xlink:href="#m818e5bc023" x="267.807857" y="377.052125" style="stroke: #000000; stroke-width: 0.5"/>
      </g>
     </g>
    </g>
    <g id="xtick_16">
     <g id="line2d_22">
      <g>
       <use xlink:href="#m818e5bc023" x="309.26602" y="377.052125" style="stroke: #000000; stroke-width: 0.5"/>
      </g>
     </g>
    </g>
    <g id="xtick_17">
     <g id="line2d_23">
      <g>
       <use xlink:href="#m818e5bc023" x="329.995102" y="377.052125" style="stroke: #000000; stroke-width: 0.5"/>
      </g>
     </g>
    </g>
    <g id="xtick_18">
     <g id="line2d_24">
      <g>
       <use xlink:href="#m818e5bc023" x="350.724184" y="377.052125" style="stroke: #000000; stroke-width: 0.5"/>
      </g>
     </g>
    </g>
    <g id="xtick_19">
     <g id="line2d_25">
      <g>
       <use xlink:href="#m818e5bc023" x="371.453265" y="377.052125" style="stroke: #000000; stroke-width: 0.5"/>
      </g>
     </g>
    </g>
    <g id="xtick_20">
     <g id="line2d_26">
      <g>
       <use xlink:href="#m818e5bc023" x="412.911429" y="377.052125" style="stroke: #000000; stroke-width: 0.5"/>
      </g>
     </g>
    </g>
    <g id="xtick_21">
     <g id="line2d_27">
      <g>
       <use xlink:href="#m818e5bc023" x="433.64051" y="377.052125" style="stroke: #000000; stroke-width: 0.5"/>
      </g>
     </g>
    </g>
    <g id="xtick_22">
     <g id="line2d_28">
      <g>
       <use xlink:href="#m818e5bc023" x="454.369592" y="377.052125" style="stroke: #000000; stroke-width: 0.5"/>
      </g>
     </g>
    </g>
    <g id="xtick_23">
     <g id="line2d_29">
      <g>
       <use xlink:href="#m818e5bc023" x="475.098673" y="377.052125" style="stroke: #000000; stroke-width: 0.5"/>
      </g>
     </g>
    </g>
    <g id="xtick_24">
     <g id="line2d_30">
      <g>
       <use xlink:href="#m818e5bc023" x="516.556837" y="377.052125" style="stroke: #000000; stroke-width: 0.5"/>
      </g>
     </g>
    </g>
    <g id="xtick_25">
     <g id="line2d_31">
      <g>
       <use xlink:href="#m818e5bc023" x="537.285918" y="377.052125" style="stroke: #000000; stroke-width: 0.5"/>
      </g>
     </g>
    </g>
    <g id="xtick_26">
     <g id="line2d_32">
      <g>
       <use xlink:href="#m818e5bc023" x="558.015" y="377.052125" style="stroke: #000000; stroke-width: 0.5"/>
      </g>
     </g>
    </g>
    <g id="xtick_27">
     <g id="line2d_33">
      <g>
       <use xlink:href="#m818e5bc023" x="578.744082" y="377.052125" style="stroke: #000000; stroke-width: 0.5"/>
      </g>
     </g>
    </g>
    <g id="xtick_28">
     <g id="line2d_34">
      <g>
       <use xlink:href="#m818e5bc023" x="620.202245" y="377.052125" style="stroke: #000000; stroke-width: 0.5"/>
      </g>
     </g>
    </g>
    <g id="text_7">
     <!-- Wavelength (nm) -->
     <g transform="translate(272.274799 410.868062) scale(0.14 -0.14)">
      <defs>
       <path id="DejaVuSans-Bold-57" d="M 191 4666 
L 1344 4666 
L 2150 1275 
L 2950 4666 
L 4109 4666 
L 4909 1275 
L 5716 4666 
L 6859 4666 
L 5759 0 
L 4372 0 
L 3525 3547 
L 2688 0 
L 1300 0 
L 191 4666 
z
" transform="scale(0.015625)"/>
       <path id="DejaVuSans-Bold-61" d="M 2106 1575 
Q 1756 1575 1579 1456 
Q 1403 1338 1403 1106 
Q 1403 894 1545 773 
Q 1688 653 1941 653 
Q 2256 653 2472 879 
Q 2688 1106 2688 1447 
L 2688 1575 
L 2106 1575 
z
M 3816 1997 
L 3816 0 
L 2688 0 
L 2688 519 
Q 2463 200 2181 54 
Q 1900 -91 1497 -91 
Q 953 -91 614 226 
Q 275 544 275 1050 
Q 275 1666 698 1953 
Q 1122 2241 2028 2241 
L 2688 2241 
L 2688 2328 
Q 2688 2594 2478 2717 
Q 2269 2841 1825 2841 
Q 1466 2841 1156 2769 
Q 847 2697 581 2553 
L 581 3406 
Q 941 3494 1303 3539 
Q 1666 3584 2028 3584 
Q 2975 3584 3395 3211 
Q 3816 2838 3816 1997 
z
" transform="scale(0.015625)"/>
       <path id="DejaVuSans-Bold-76" d="M 97 3500 
L 1216 3500 
L 2088 1081 
L 2956 3500 
L 4078 3500 
L 2700 0 
L 1472 0 
L 97 3500 
z
" transform="scale(0.015625)"/>
       <path id="DejaVuSans-Bold-65" d="M 4031 1759 
L 4031 1441 
L 1416 1441 
Q 1456 1047 1700 850 
Q 1944 653 2381 653 
Q 2734 653 3104 758 
Q 3475 863 3866 1075 
L 3866 213 
Q 3469 63 3072 -14 
Q 2675 -91 2278 -91 
Q 1328 -91 801 392 
Q 275 875 275 1747 
Q 275 2603 792 3093 
Q 1309 3584 2216 3584 
Q 3041 3584 3536 3087 
Q 4031 2591 4031 1759 
z
M 2881 2131 
Q 2881 2450 2695 2645 
Q 2509 2841 2209 2841 
Q 1884 2841 1681 2658 
Q 1478 2475 1428 2131 
L 2881 2131 
z
" transform="scale(0.015625)"/>
       <path id="DejaVuSans-Bold-6c" d="M 538 4863 
L 1656 4863 
L 1656 0 
L 538 0 
L 538 4863 
z
" transform="scale(0.015625)"/>
       <path id="DejaVuSans-Bold-6e" d="M 4056 2131 
L 4056 0 
L 2931 0 
L 2931 347 
L 2931 1631 
Q 2931 2084 2911 2256 
Q 2891 2428 2841 2509 
Q 2775 2619 2662 2680 
Q 2550 2741 2406 2741 
Q 2056 2741 1856 2470 
Q 1656 2200 1656 1722 
L 1656 0 
L 538 0 
L 538 3500 
L 1656 3500 
L 1656 2988 
Q 1909 3294 2193 3439 
Q 2478 3584 2822 3584 
Q 3428 3584 3742 3212 
Q 4056 2841 4056 2131 
z
" transform="scale(0.015625)"/>
       <path id="DejaVuSans-Bold-67" d="M 2919 594 
Q 2688 288 2409 144 
Q 2131 0 1766 0 
Q 1125 0 706 504 
Q 288 1009 288 1791 
Q 288 2575 706 3076 
Q 1125 3578 1766 3578 
Q 2131 3578 2409 3434 
Q 2688 3291 2919 2981 
L 2919 3500 
L 4044 3500 
L 4044 353 
Q 4044 -491 3511 -936 
Q 2978 -1381 1966 -1381 
Q 1638 -1381 1331 -1331 
Q 1025 -1281 716 -1178 
L 716 -306 
Q 1009 -475 1290 -558 
Q 1572 -641 1856 -641 
Q 2406 -641 2662 -400 
Q 2919 -159 2919 353 
L 2919 594 
z
M 2181 2772 
Q 1834 2772 1640 2515 
Q 1447 2259 1447 1791 
Q 1447 1309 1634 1061 
Q 1822 813 2181 813 
Q 2531 813 2725 1069 
Q 2919 1325 2919 1791 
Q 2919 2259 2725 2515 
Q 2531 2772 2181 2772 
z
" transform="scale(0.015625)"/>
       <path id="DejaVuSans-Bold-74" d="M 1759 4494 
L 1759 3500 
L 2913 3500 
L 2913 2700 
L 1759 2700 
L 1759 1216 
Q 1759 972 1856 886 
Q 1953 800 2241 800 
L 2816 800 
L 2816 0 
L 1856 0 
Q 1194 0 917 276 
Q 641 553 641 1216 
L 641 2700 
L 84 2700 
L 84 3500 
L 641 3500 
L 641 4494 
L 1759 4494 
z
" transform="scale(0.015625)"/>
       <path id="DejaVuSans-Bold-68" d="M 4056 2131 
L 4056 0 
L 2931 0 
L 2931 347 
L 2931 1625 
Q 2931 2084 2911 2256 
Q 2891 2428 2841 2509 
Q 2775 2619 2662 2680 
Q 2550 2741 2406 2741 
Q 2056 2741 1856 2470 
Q 1656 2200 1656 1722 
L 1656 0 
L 538 0 
L 538 4863 
L 1656 4863 
L 1656 2988 
Q 1909 3294 2193 3439 
Q 2478 3584 2822 3584 
Q 3428 3584 3742 3212 
Q 4056 2841 4056 2131 
z
" transform="scale(0.015625)"/>
       <path id="DejaVuSans-Bold-20" transform="scale(0.015625)"/>
       <path id="DejaVuSans-Bold-28" d="M 2413 -844 
L 1484 -844 
Q 1006 -72 778 623 
Q 550 1319 550 2003 
Q 550 2688 779 3389 
Q 1009 4091 1484 4856 
L 2413 4856 
Q 2013 4116 1813 3408 
Q 1613 2700 1613 2009 
Q 1613 1319 1811 609 
Q 2009 -100 2413 -844 
z
" transform="scale(0.015625)"/>
       <path id="DejaVuSans-Bold-6d" d="M 3781 2919 
Q 3994 3244 4286 3414 
Q 4578 3584 4928 3584 
Q 5531 3584 5847 3212 
Q 6163 2841 6163 2131 
L 6163 0 
L 5038 0 
L 5038 1825 
Q 5041 1866 5042 1909 
Q 5044 1953 5044 2034 
Q 5044 2406 4934 2573 
Q 4825 2741 4581 2741 
Q 4263 2741 4089 2478 
Q 3916 2216 3909 1719 
L 3909 0 
L 2784 0 
L 2784 1825 
Q 2784 2406 2684 2573 
Q 2584 2741 2328 2741 
Q 2006 2741 1831 2477 
Q 1656 2213 1656 1722 
L 1656 0 
L 531 0 
L 531 3500 
L 1656 3500 
L 1656 2988 
Q 1863 3284 2130 3434 
Q 2397 3584 2719 3584 
Q 3081 3584 3359 3409 
Q 3638 3234 3781 2919 
z
" transform="scale(0.015625)"/>
       <path id="DejaVuSans-Bold-29" d="M 513 -844 
Q 913 -100 1113 609 
Q 1313 1319 1313 2009 
Q 1313 2700 1113 3408 
Q 913 4116 513 4856 
L 1441 4856 
Q 1916 4091 2145 3389 
Q 2375 2688 2375 2003 
Q 2375 1319 2147 623 
Q 1919 -72 1441 -844 
L 513 -844 
z
" transform="scale(0.015625)"/>
      </defs>
      <use xlink:href="#DejaVuSans-Bold-57"/>
      <use xlink:href="#DejaVuSans-Bold-61" transform="translate(106.677734 0)"/>
      <use xlink:href="#DejaVuSans-Bold-76" transform="translate(174.158203 0)"/>
      <use xlink:href="#DejaVuSans-Bold-65" transform="translate(239.34375 0)"/>
      <use xlink:href="#DejaVuSans-Bold-6c" transform="translate(307.166016 0)"/>
      <use xlink:href="#DejaVuSans-Bold-65" transform="translate(341.443359 0)"/>
      <use xlink:href="#DejaVuSans-Bold-6e" transform="translate(409.265625 0)"/>
      <use xlink:href="#DejaVuSans-Bold-67" transform="translate(480.457031 0)"/>
      <use xlink:href="#DejaVuSans-Bold-74" transform="translate(552.039062 0)"/>
      <use xlink:href="#DejaVuSans-Bold-68" transform="translate(599.841797 0)"/>
      <use xlink:href="#DejaVuSans-Bold-20" transform="translate(671.033203 0)"/>
      <use xlink:href="#DejaVuSans-Bold-28" transform="translate(705.847656 0)"/>
      <use xlink:href="#DejaVuSans-Bold-6e" transform="translate(751.550781 0)"/>
      <use xlink:href="#DejaVuSans-Bold-6d" transform="translate(822.742188 0)"/>
      <use xlink:href="#DejaVuSans-Bold-29" transform="translate(926.941406 0)"/>
     </g>
    </g>
   </g>
   <g id="matplotlib.axis_2">
    <g id="ytick_1">
     <g id="line2d_35">
      <path d="M 50.1525 377.052125 
L 630.566786 377.052125 
" clip-path="url(#p512be488b3)" style="fill: none; stroke: #b0b0b0; stroke-opacity: 0.3; stroke-width: 0.5; stroke-linecap: square"/>
     </g>
     <g id="line2d_36">
      <defs>
       <path id="m004da40677" d="M 0 0 
L -6 0 
" style="stroke: #000000"/>
      </defs>
      <g>
       <use xlink:href="#m004da40677" x="50.1525" y="377.052125" style="stroke: #000000"/>
      </g>
     </g>
     <g id="text_8">
      <!-- 0.0 -->
      <g transform="translate(24.749375 380.851344) scale(0.1 -0.1)">
       <defs>
        <path id="DejaVuSans-2e" d="M 684 794 
L 1344 794 
L 1344 0 
L 684 0 
L 684 794 
z
" transform="scale(0.015625)"/>
       </defs>
       <use xlink:href="#DejaVuSans-30"/>
       <use xlink:href="#DejaVuSans-2e" transform="translate(63.623047 0)"/>
       <use xlink:href="#DejaVuSans-30" transform="translate(95.410156 0)"/>
      </g>
     </g>
    </g>
    <g id="ytick_2">
     <g id="line2d_37">
      <path d="M 50.1525 331.800649 
L 630.566786 331.800649 
" clip-path="url(#p512be488b3)" style="fill: none; stroke: #b0b0b0; stroke-opacity: 0.3; stroke-width: 0.5; stroke-linecap: square"/>
     </g>
     <g id="line2d_38">
      <g>
       <use xlink:href="#m004da40677" x="50.1525" y="331.800649" style="stroke: #000000"/>
      </g>
     </g>
     <g id="text_9">
      <!-- 0.1 -->
      <g transform="translate(24.749375 335.599867) scale(0.1 -0.1)">
       <use xlink:href="#DejaVuSans-30"/>
       <use xlink:href="#DejaVuSans-2e" transform="translate(63.623047 0)"/>
       <use xlink:href="#DejaVuSans-31" transform="translate(95.410156 0)"/>
      </g>
     </g>
    </g>
    <g id="ytick_3">
     <g id="line2d_39">
      <path d="M 50.1525 286.549172 
L 630.566786 286.549172 
" clip-path="url(#p512be488b3)" style="fill: none; stroke: #b0b0b0; stroke-opacity: 0.3; stroke-width: 0.5; stroke-linecap: square"/>
     </g>
     <g id="line2d_40">
      <g>
       <use xlink:href="#m004da40677" x="50.1525" y="286.549172" style="stroke: #000000"/>
      </g>
     </g>
     <g id="text_10">
      <!-- 0.2 -->
      <g transform="translate(24.749375 290.348391) scale(0.1 -0.1)">
       <defs>
        <path id="DejaVuSans-32" d="M 1228 531 
L 3431 531 
L 3431 0 
L 469 0 
L 469 531 
Q 828 903 1448 1529 
Q 2069 2156 2228 2338 
Q 2531 2678 2651 2914 
Q 2772 3150 2772 3378 
Q 2772 3750 2511 3984 
Q 2250 4219 1831 4219 
Q 1534 4219 1204 4116 
Q 875 4013 500 3803 
L 500 4441 
Q 881 4594 1212 4672 
Q 1544 4750 1819 4750 
Q 2544 4750 2975 4387 
Q 3406 4025 3406 3419 
Q 3406 3131 3298 2873 
Q 3191 2616 2906 2266 
Q 2828 2175 2409 1742 
Q 1991 1309 1228 531 
z
" transform="scale(0.015625)"/>
       </defs>
       <use xlink:href="#DejaVuSans-30"/>
       <use xlink:href="#DejaVuSans-2e" transform="translate(63.623047 0)"/>
       <use xlink:href="#DejaVuSans-32" transform="translate(95.410156 0)"/>
      </g>
     </g>
    </g>
    <g id="ytick_4">
     <g id="line2d_41">
      <path d="M 50.1525 241.297696 
L 630.566786 241.297696 
" clip-path="url(#p512be488b3)" style="fill: none; stroke: #b0b0b0; stroke-opacity: 0.3; stroke-width: 0.5; stroke-linecap: square"/>
     </g>
     <g id="line2d_42">
      <g>
       <use xlink:href="#m004da40677" x="50.1525" y="241.297696" style="stroke: #000000"/>
      </g>
     </g>
     <g id="text_11">
      <!-- 0.3 -->
      <g transform="translate(24.749375 245.096915) scale(0.1 -0.1)">
       <defs>
        <path id="DejaVuSans-33" d="M 2597 2516 
Q 3050 2419 3304 2112 
Q 3559 1806 3559 1356 
Q 3559 666 3084 287 
Q 2609 -91 1734 -91 
Q 1441 -91 1130 -33 
Q 819 25 488 141 
L 488 750 
Q 750 597 1062 519 
Q 1375 441 1716 441 
Q 2309 441 2620 675 
Q 2931 909 2931 1356 
Q 2931 1769 2642 2001 
Q 2353 2234 1838 2234 
L 1294 2234 
L 1294 2753 
L 1863 2753 
Q 2328 2753 2575 2939 
Q 2822 3125 2822 3475 
Q 2822 3834 2567 4026 
Q 2313 4219 1838 4219 
Q 1578 4219 1281 4162 
Q 984 4106 628 3988 
L 628 4550 
Q 988 4650 1302 4700 
Q 1616 4750 1894 4750 
Q 2613 4750 3031 4423 
Q 3450 4097 3450 3541 
Q 3450 3153 3228 2886 
Q 3006 2619 2597 2516 
z
" transform="scale(0.015625)"/>
       </defs>
       <use xlink:href="#DejaVuSans-30"/>
       <use xlink:href="#DejaVuSans-2e" transform="translate(63.623047 0)"/>
       <use xlink:href="#DejaVuSans-33" transform="translate(95.410156 0)"/>
      </g>
     </g>
    </g>
    <g id="ytick_5">
     <g id="line2d_43">
      <path d="M 50.1525 196.04622 
L 630.566786 196.04622 
" clip-path="url(#p512be488b3)" style="fill: none; stroke: #b0b0b0; stroke-opacity: 0.3; stroke-width: 0.5; stroke-linecap: square"/>
     </g>
     <g id="line2d_44">
      <g>
       <use xlink:href="#m004da40677" x="50.1525" y="196.04622" style="stroke: #000000"/>
      </g>
     </g>
     <g id="text_12">
      <!-- 0.4 -->
      <g transform="translate(24.749375 199.845438) scale(0.1 -0.1)">
       <defs>
        <path id="DejaVuSans-34" d="M 2419 4116 
L 825 1625 
L 2419 1625 
L 2419 4116 
z
M 2253 4666 
L 3047 4666 
L 3047 1625 
L 3713 1625 
L 3713 1100 
L 3047 1100 
L 3047 0 
L 2419 0 
L 2419 1100 
L 313 1100 
L 313 1709 
L 2253 4666 
z
" transform="scale(0.015625)"/>
       </defs>
       <use xlink:href="#DejaVuSans-30"/>
       <use xlink:href="#DejaVuSans-2e" transform="translate(63.623047 0)"/>
       <use xlink:href="#DejaVuSans-34" transform="translate(95.410156 0)"/>
      </g>
     </g>
    </g>
    <g id="ytick_6">
     <g id="line2d_45">
      <path d="M 50.1525 150.794743 
L 630.566786 150.794743 
" clip-path="url(#p512be488b3)" style="fill: none; stroke: #b0b0b0; stroke-opacity: 0.3; stroke-width: 0.5; stroke-linecap: square"/>
     </g>
     <g id="line2d_46">
      <g>
       <use xlink:href="#m004da40677" x="50.1525" y="150.794743" style="stroke: #000000"/>
      </g>
     </g>
     <g id="text_13">
      <!-- 0.5 -->
      <g transform="translate(24.749375 154.593962) scale(0.1 -0.1)">
       <use xlink:href="#DejaVuSans-30"/>
       <use xlink:href="#DejaVuSans-2e" transform="translate(63.623047 0)"/>
       <use xlink:href="#DejaVuSans-35" transform="translate(95.410156 0)"/>
      </g>
     </g>
    </g>
    <g id="ytick_7">
     <g id="line2d_47">
      <path d="M 50.1525 105.543267 
L 630.566786 105.543267 
" clip-path="url(#p512be488b3)" style="fill: none; stroke: #b0b0b0; stroke-opacity: 0.3; stroke-width: 0.5; stroke-linecap: square"/>
     </g>
     <g id="line2d_48">
      <g>
       <use xlink:href="#m004da40677" x="50.1525" y="105.543267" style="stroke: #000000"/>
      </g>
     </g>
     <g id="text_14">
      <!-- 0.6 -->
      <g transform="translate(24.749375 109.342486) scale(0.1 -0.1)">
       <use xlink:href="#DejaVuSans-30"/>
       <use xlink:href="#DejaVuSans-2e" transform="translate(63.623047 0)"/>
       <use xlink:href="#DejaVuSans-36" transform="translate(95.410156 0)"/>
      </g>
     </g>
    </g>
    <g id="ytick_8">
     <g id="line2d_49">
      <path d="M 50.1525 60.291791 
L 630.566786 60.291791 
" clip-path="url(#p512be488b3)" style="fill: none; stroke: #b0b0b0; stroke-opacity: 0.3; stroke-width: 0.5; stroke-linecap: square"/>
     </g>
     <g id="line2d_50">
      <g>
       <use xlink:href="#m004da40677" x="50.1525" y="60.291791" style="stroke: #000000"/>
      </g>
     </g>
     <g id="text_15">
      <!-- 0.7 -->
      <g transform="translate(24.749375 64.091009) scale(0.1 -0.1)">
       <use xlink:href="#DejaVuSans-30"/>
       <use xlink:href="#DejaVuSans-2e" transform="translate(63.623047 0)"/>
       <use xlink:href="#DejaVuSans-37" transform="translate(95.410156 0)"/>
      </g>
     </g>
    </g>
    <g id="ytick_9">
     <g id="line2d_51">
      <defs>
       <path id="mc377081987" d="M 0 0 
L -3 0 
" style="stroke: #000000; stroke-width: 0.5"/>
      </defs>
      <g>
       <use xlink:href="#mc377081987" x="50.1525" y="368.00183" style="stroke: #000000; stroke-width: 0.5"/>
      </g>
     </g>
    </g>
    <g id="ytick_10">
     <g id="line2d_52">
      <g>
       <use xlink:href="#mc377081987" x="50.1525" y="358.951534" style="stroke: #000000; stroke-width: 0.5"/>
      </g>
     </g>
    </g>
    <g id="ytick_11">
     <g id="line2d_53">
      <g>
       <use xlink:href="#mc377081987" x="50.1525" y="349.901239" style="stroke: #000000; stroke-width: 0.5"/>
      </g>
     </g>
    </g>
    <g id="ytick_12">
     <g id="line2d_54">
      <g>
       <use xlink:href="#mc377081987" x="50.1525" y="340.850944" style="stroke: #000000; stroke-width: 0.5"/>
      </g>
     </g>
    </g>
    <g id="ytick_13">
     <g id="line2d_55">
      <g>
       <use xlink:href="#mc377081987" x="50.1525" y="322.750353" style="stroke: #000000; stroke-width: 0.5"/>
      </g>
     </g>
    </g>
    <g id="ytick_14">
     <g id="line2d_56">
      <g>
       <use xlink:href="#mc377081987" x="50.1525" y="313.700058" style="stroke: #000000; stroke-width: 0.5"/>
      </g>
     </g>
    </g>
    <g id="ytick_15">
     <g id="line2d_57">
      <g>
       <use xlink:href="#mc377081987" x="50.1525" y="304.649763" style="stroke: #000000; stroke-width: 0.5"/>
      </g>
     </g>
    </g>
    <g id="ytick_16">
     <g id="line2d_58">
      <g>
       <use xlink:href="#mc377081987" x="50.1525" y="295.599468" style="stroke: #000000; stroke-width: 0.5"/>
      </g>
     </g>
    </g>
    <g id="ytick_17">
     <g id="line2d_59">
      <g>
       <use xlink:href="#mc377081987" x="50.1525" y="277.498877" style="stroke: #000000; stroke-width: 0.5"/>
      </g>
     </g>
    </g>
    <g id="ytick_18">
     <g id="line2d_60">
      <g>
       <use xlink:href="#mc377081987" x="50.1525" y="268.448582" style="stroke: #000000; stroke-width: 0.5"/>
      </g>
     </g>
    </g>
    <g id="ytick_19">
     <g id="line2d_61">
      <g>
       <use xlink:href="#mc377081987" x="50.1525" y="259.398286" style="stroke: #000000; stroke-width: 0.5"/>
      </g>
     </g>
    </g>
    <g id="ytick_20">
     <g id="line2d_62">
      <g>
       <use xlink:href="#mc377081987" x="50.1525" y="250.347991" style="stroke: #000000; stroke-width: 0.5"/>
      </g>
     </g>
    </g>
    <g id="ytick_21">
     <g id="line2d_63">
      <g>
       <use xlink:href="#mc377081987" x="50.1525" y="232.247401" style="stroke: #000000; stroke-width: 0.5"/>
      </g>
     </g>
    </g>
    <g id="ytick_22">
     <g id="line2d_64">
      <g>
       <use xlink:href="#mc377081987" x="50.1525" y="223.197105" style="stroke: #000000; stroke-width: 0.5"/>
      </g>
     </g>
    </g>
    <g id="ytick_23">
     <g id="line2d_65">
      <g>
       <use xlink:href="#mc377081987" x="50.1525" y="214.14681" style="stroke: #000000; stroke-width: 0.5"/>
      </g>
     </g>
    </g>
    <g id="ytick_24">
     <g id="line2d_66">
      <g>
       <use xlink:href="#mc377081987" x="50.1525" y="205.096515" style="stroke: #000000; stroke-width: 0.5"/>
      </g>
     </g>
    </g>
    <g id="ytick_25">
     <g id="line2d_67">
      <g>
       <use xlink:href="#mc377081987" x="50.1525" y="186.995924" style="stroke: #000000; stroke-width: 0.5"/>
      </g>
     </g>
    </g>
    <g id="ytick_26">
     <g id="line2d_68">
      <g>
       <use xlink:href="#mc377081987" x="50.1525" y="177.945629" style="stroke: #000000; stroke-width: 0.5"/>
      </g>
     </g>
    </g>
    <g id="ytick_27">
     <g id="line2d_69">
      <g>
       <use xlink:href="#mc377081987" x="50.1525" y="168.895334" style="stroke: #000000; stroke-width: 0.5"/>
      </g>
     </g>
    </g>
    <g id="ytick_28">
     <g id="line2d_70">
      <g>
       <use xlink:href="#mc377081987" x="50.1525" y="159.845039" style="stroke: #000000; stroke-width: 0.5"/>
      </g>
     </g>
    </g>
    <g id="ytick_29">
     <g id="line2d_71">
      <g>
       <use xlink:href="#mc377081987" x="50.1525" y="141.744448" style="stroke: #000000; stroke-width: 0.5"/>
      </g>
     </g>
    </g>
    <g id="ytick_30">
     <g id="line2d_72">
      <g>
       <use xlink:href="#mc377081987" x="50.1525" y="132.694153" style="stroke: #000000; stroke-width: 0.5"/>
      </g>
     </g>
    </g>
    <g id="ytick_31">
     <g id="line2d_73">
      <g>
       <use xlink:href="#mc377081987" x="50.1525" y="123.643857" style="stroke: #000000; stroke-width: 0.5"/>
      </g>
     </g>
    </g>
    <g id="ytick_32">
     <g id="line2d_74">
      <g>
       <use xlink:href="#mc377081987" x="50.1525" y="114.593562" style="stroke: #000000; stroke-width: 0.5"/>
      </g>
     </g>
    </g>
    <g id="ytick_33">
     <g id="line2d_75">
      <g>
       <use xlink:href="#mc377081987" x="50.1525" y="96.492972" style="stroke: #000000; stroke-width: 0.5"/>
      </g>
     </g>
    </g>
    <g id="ytick_34">
     <g id="line2d_76">
      <g>
       <use xlink:href="#mc377081987" x="50.1525" y="87.442676" style="stroke: #000000; stroke-width: 0.5"/>
      </g>
     </g>
    </g>
    <g id="ytick_35">
     <g id="line2d_77">
      <g>
       <use xlink:href="#mc377081987" x="50.1525" y="78.392381" style="stroke: #000000; stroke-width: 0.5"/>
      </g>
     </g>
    </g>
    <g id="ytick_36">
     <g id="line2d_78">
      <g>
       <use xlink:href="#mc377081987" x="50.1525" y="69.342086" style="stroke: #000000; stroke-width: 0.5"/>
      </g>
     </g>
    </g>
    <g id="ytick_37">
     <g id="line2d_79">
      <g>
       <use xlink:href="#mc377081987" x="50.1525" y="51.241495" style="stroke: #000000; stroke-width: 0.5"/>
      </g>
     </g>
    </g>
    <g id="text_16">
     <!-- PI Variance (×10⁻⁶) -->
     <g transform="translate(17.837813 288.425) rotate(-90) scale(0.14 -0.14)">
      <defs>
       <path id="DejaVuSans-Bold-50" d="M 588 4666 
L 2584 4666 
Q 3475 4666 3951 4270 
Q 4428 3875 4428 3144 
Q 4428 2409 3951 2014 
Q 3475 1619 2584 1619 
L 1791 1619 
L 1791 0 
L 588 0 
L 588 4666 
z
M 1791 3794 
L 1791 2491 
L 2456 2491 
Q 2806 2491 2997 2661 
Q 3188 2831 3188 3144 
Q 3188 3456 2997 3625 
Q 2806 3794 2456 3794 
L 1791 3794 
z
" transform="scale(0.015625)"/>
       <path id="DejaVuSans-Bold-49" d="M 588 4666 
L 1791 4666 
L 1791 0 
L 588 0 
L 588 4666 
z
" transform="scale(0.015625)"/>
       <path id="DejaVuSans-Bold-56" d="M 31 4666 
L 1241 4666 
L 2478 1222 
L 3713 4666 
L 4922 4666 
L 3194 0 
L 1759 0 
L 31 4666 
z
" transform="scale(0.015625)"/>
       <path id="DejaVuSans-Bold-72" d="M 3138 2547 
Q 2991 2616 2845 2648 
Q 2700 2681 2553 2681 
Q 2122 2681 1889 2404 
Q 1656 2128 1656 1613 
L 1656 0 
L 538 0 
L 538 3500 
L 1656 3500 
L 1656 2925 
Q 1872 3269 2151 3426 
Q 2431 3584 2822 3584 
Q 2878 3584 2943 3579 
Q 3009 3575 3134 3559 
L 3138 2547 
z
" transform="scale(0.015625)"/>
       <path id="DejaVuSans-Bold-69" d="M 538 3500 
L 1656 3500 
L 1656 0 
L 538 0 
L 538 3500 
z
M 538 4863 
L 1656 4863 
L 1656 3950 
L 538 3950 
L 538 4863 
z
" transform="scale(0.015625)"/>
       <path id="DejaVuSans-Bold-63" d="M 3366 3391 
L 3366 2478 
Q 3138 2634 2908 2709 
Q 2678 2784 2431 2784 
Q 1963 2784 1702 2511 
Q 1441 2238 1441 1747 
Q 1441 1256 1702 982 
Q 1963 709 2431 709 
Q 2694 709 2930 787 
Q 3166 866 3366 1019 
L 3366 103 
Q 3103 6 2833 -42 
Q 2563 -91 2291 -91 
Q 1344 -91 809 395 
Q 275 881 275 1747 
Q 275 2613 809 3098 
Q 1344 3584 2291 3584 
Q 2566 3584 2833 3536 
Q 3100 3488 3366 3391 
z
" transform="scale(0.015625)"/>
       <path id="DejaVuSans-Bold-d7" d="M 4563 3359 
L 3206 2003 
L 4563 653 
L 4038 128 
L 2681 1478 
L 1325 128 
L 800 653 
L 2156 2003 
L 800 3359 
L 1325 3884 
L 2681 2528 
L 4038 3884 
L 4563 3359 
z
" transform="scale(0.015625)"/>
       <path id="DejaVuSans-Bold-31" d="M 750 831 
L 1813 831 
L 1813 3847 
L 722 3622 
L 722 4441 
L 1806 4666 
L 2950 4666 
L 2950 831 
L 4013 831 
L 4013 0 
L 750 0 
L 750 831 
z
" transform="scale(0.015625)"/>
       <path id="DejaVuSans-Bold-30" d="M 2944 2338 
Q 2944 3213 2780 3570 
Q 2616 3928 2228 3928 
Q 1841 3928 1675 3570 
Q 1509 3213 1509 2338 
Q 1509 1453 1675 1090 
Q 1841 728 2228 728 
Q 2613 728 2778 1090 
Q 2944 1453 2944 2338 
z
M 4147 2328 
Q 4147 1169 3647 539 
Q 3147 -91 2228 -91 
Q 1306 -91 806 539 
Q 306 1169 306 2328 
Q 306 3491 806 4120 
Q 1306 4750 2228 4750 
Q 3147 4750 3647 4120 
Q 4147 3491 4147 2328 
z
" transform="scale(0.015625)"/>
       <path id="DejaVuSans-Bold-207b" d="M 428 3419 
L 2950 3419 
L 2950 3003 
L 428 3003 
L 428 3419 
z
" transform="scale(0.015625)"/>
       <path id="DejaVuSans-Bold-2076" d="M 1422 3378 
Q 1228 3378 1131 3266 
Q 1034 3150 1034 2922 
Q 1034 2691 1131 2578 
Q 1228 2463 1422 2463 
Q 1619 2463 1716 2578 
Q 1813 2691 1813 2922 
Q 1813 3150 1716 3266 
Q 1619 3378 1422 3378 
z
M 2334 4638 
L 2334 4156 
Q 2153 4234 1991 4272 
Q 1831 4309 1678 4309 
Q 1347 4309 1163 4144 
Q 978 3975 947 3647 
Q 1075 3731 1222 3775 
Q 1369 3819 1544 3819 
Q 1984 3819 2253 3584 
Q 2522 3350 2522 2966 
Q 2522 2544 2222 2294 
Q 1922 2041 1416 2041 
Q 856 2041 550 2384 
Q 244 2728 244 3356 
Q 244 4016 600 4381 
Q 959 4750 1584 4750 
Q 1781 4750 1966 4722 
Q 2153 4694 2334 4638 
z
" transform="scale(0.015625)"/>
      </defs>
      <use xlink:href="#DejaVuSans-Bold-50"/>
      <use xlink:href="#DejaVuSans-Bold-49" transform="translate(73.291016 0)"/>
      <use xlink:href="#DejaVuSans-Bold-20" transform="translate(110.498047 0)"/>
      <use xlink:href="#DejaVuSans-Bold-56" transform="translate(145.3125 0)"/>
      <use xlink:href="#DejaVuSans-Bold-61" transform="translate(217.205078 0)"/>
      <use xlink:href="#DejaVuSans-Bold-72" transform="translate(284.685547 0)"/>
      <use xlink:href="#DejaVuSans-Bold-69" transform="translate(334.001953 0)"/>
      <use xlink:href="#DejaVuSans-Bold-61" transform="translate(368.279297 0)"/>
      <use xlink:href="#DejaVuSans-Bold-6e" transform="translate(435.759766 0)"/>
      <use xlink:href="#DejaVuSans-Bold-63" transform="translate(506.951172 0)"/>
      <use xlink:href="#DejaVuSans-Bold-65" transform="translate(566.228516 0)"/>
      <use xlink:href="#DejaVuSans-Bold-20" transform="translate(634.050781 0)"/>
      <use xlink:href="#DejaVuSans-Bold-28" transform="translate(668.865234 0)"/>
      <use xlink:href="#DejaVuSans-Bold-d7" transform="translate(714.568359 0)"/>
      <use xlink:href="#DejaVuSans-Bold-31" transform="translate(798.357422 0)"/>
      <use xlink:href="#DejaVuSans-Bold-30" transform="translate(867.9375 0)"/>
      <use xlink:href="#DejaVuSans-Bold-207b" transform="translate(937.517578 0)"/>
      <use xlink:href="#DejaVuSans-Bold-2076" transform="translate(990.300781 0)"/>
      <use xlink:href="#DejaVuSans-Bold-29" transform="translate(1034.099609 0)"/>
     </g>
    </g>
   </g>
   <g id="line2d_80">
    <path d="M 50.1525 304.004082 
L 630.566786 304.004082 
" clip-path="url(#p512be488b3)" style="fill: none; stroke-dasharray: 5.55,2.4; stroke-dashoffset: 0; stroke: #808080; stroke-opacity: 0.5; stroke-width: 1.5"/>
   </g>
   <g id="patch_4">
    <path d="M 50.1525 377.052125 
L 50.1525 48.624125 
" style="fill: none; stroke: #000000; stroke-width: 0.8; stroke-linejoin: miter; stroke-linecap: square"/>
   </g>
   <g id="patch_5">
    <path d="M 630.566786 377.052125 
L 630.566786 48.624125 
" style="fill: none; stroke: #000000; stroke-width: 0.8; stroke-linejoin: miter; stroke-linecap: square"/>
   </g>
   <g id="patch_6">
    <path d="M 50.1525 377.052125 
L 630.566786 377.052125 
" style="fill: none; stroke: #000000; stroke-width: 0.8; stroke-linejoin: miter; stroke-linecap: square"/>
   </g>
   <g id="patch_7">
    <path d="M 50.1525 48.624125 
L 630.566786 48.624125 
" style="fill: none; stroke: #000000; stroke-width: 0.8; stroke-linejoin: miter; stroke-linecap: square"/>
   </g>
   <g id="line2d_81">
    <path d="M 81.246122 225.556125 
L 133.068827 103.362125 
L 184.891531 332.604182 
L 236.714235 366.57296 
L 288.536939 359.988119 
L 340.359643 304.678162 
L 392.182347 311.459341 
L 444.005051 303.989102 
L 495.827755 373.567742 
L 547.650459 339.068788 
L 599.473163 323.19826 
" clip-path="url(#p512be488b3)" style="fill: none; stroke: #2c3e50; stroke-width: 2.5; stroke-linecap: square"/>
    <defs>
     <path id="mfeb65f8a2b" d="M 0 5 
C 1.326016 5 2.597899 4.473168 3.535534 3.535534 
C 4.473168 2.597899 5 1.326016 5 0 
C 5 -1.326016 4.473168 -2.597899 3.535534 -3.535534 
C 2.597899 -4.473168 1.326016 -5 0 -5 
C -1.326016 -5 -2.597899 -4.473168 -3.535534 -3.535534 
C -4.473168 -2.597899 -5 -1.326016 -5 0 
C -5 1.326016 -4.473168 2.597899 -3.535534 3.535534 
C -2.597899 4.473168 -1.326016 5 0 5 
z
" style="stroke: #2c3e50; stroke-width: 1.5"/>
    </defs>
    <g clip-path="url(#p512be488b3)">
     <use xlink:href="#mfeb65f8a2b" x="81.246122" y="225.556125" style="fill: #3498db; stroke: #2c3e50; stroke-width: 1.5"/>
     <use xlink:href="#mfeb65f8a2b" x="133.068827" y="103.362125" style="fill: #3498db; stroke: #2c3e50; stroke-width: 1.5"/>
     <use xlink:href="#mfeb65f8a2b" x="184.891531" y="332.604182" style="fill: #3498db; stroke: #2c3e50; stroke-width: 1.5"/>
     <use xlink:href="#mfeb65f8a2b" x="236.714235" y="366.57296" style="fill: #3498db; stroke: #2c3e50; stroke-width: 1.5"/>
     <use xlink:href="#mfeb65f8a2b" x="288.536939" y="359.988119" style="fill: #3498db; stroke: #2c3e50; stroke-width: 1.5"/>
     <use xlink:href="#mfeb65f8a2b" x="340.359643" y="304.678162" style="fill: #3498db; stroke: #2c3e50; stroke-width: 1.5"/>
     <use xlink:href="#mfeb65f8a2b" x="392.182347" y="311.459341" style="fill: #3498db; stroke: #2c3e50; stroke-width: 1.5"/>
     <use xlink:href="#mfeb65f8a2b" x="444.005051" y="303.989102" style="fill: #3498db; stroke: #2c3e50; stroke-width: 1.5"/>
     <use xlink:href="#mfeb65f8a2b" x="495.827755" y="373.567742" style="fill: #3498db; stroke: #2c3e50; stroke-width: 1.5"/>
     <use xlink:href="#mfeb65f8a2b" x="547.650459" y="339.068788" style="fill: #3498db; stroke: #2c3e50; stroke-width: 1.5"/>
     <use xlink:href="#mfeb65f8a2b" x="599.473163" y="323.19826" style="fill: #3498db; stroke: #2c3e50; stroke-width: 1.5"/>
    </g>
   </g>
   <g id="patch_8">
    <path d="M 579.658395 340.436645 
Q 538.67302 356.634665 499.247308 372.216284 
" style="fill: none; stroke: #e74c3c; stroke-width: 1.5; stroke-linecap: round"/>
    <path d="M 504.147935 372.645067 
L 499.247308 372.216284 
L 502.530711 368.553052 
" style="fill: none; stroke: #e74c3c; stroke-width: 1.5; stroke-linecap: round"/>
   </g>
   <g id="text_17">
    <g id="patch_9">
     <path d="M 547.650459 339.201898 
L 698.285147 339.201898 
Q 702.685147 339.201898 702.685147 334.801898 
L 702.685147 311.838367 
Q 702.685147 307.438367 698.285147 307.438367 
L 547.650459 307.438367 
Q 543.250459 307.438367 543.250459 311.838367 
L 543.250459 334.801898 
Q 543.250459 339.201898 547.650459 339.201898 
z
" style="fill: #fadbd8; opacity: 0.9; stroke: #e74c3c; stroke-linejoin: miter"/>
    </g>
    <!-- Minimum at 900 nm -->
    <g transform="translate(547.650459 320.196648) scale(0.11 -0.11)">
     <defs>
      <path id="DejaVuSans-Bold-4d" d="M 588 4666 
L 2119 4666 
L 3181 2169 
L 4250 4666 
L 5778 4666 
L 5778 0 
L 4641 0 
L 4641 3413 
L 3566 897 
L 2803 897 
L 1728 3413 
L 1728 0 
L 588 0 
L 588 4666 
z
" transform="scale(0.015625)"/>
      <path id="DejaVuSans-Bold-75" d="M 500 1363 
L 500 3500 
L 1625 3500 
L 1625 3150 
Q 1625 2866 1622 2436 
Q 1619 2006 1619 1863 
Q 1619 1441 1641 1255 
Q 1663 1069 1716 984 
Q 1784 875 1895 815 
Q 2006 756 2150 756 
Q 2500 756 2700 1025 
Q 2900 1294 2900 1772 
L 2900 3500 
L 4019 3500 
L 4019 0 
L 2900 0 
L 2900 506 
Q 2647 200 2364 54 
Q 2081 -91 1741 -91 
Q 1134 -91 817 281 
Q 500 653 500 1363 
z
" transform="scale(0.015625)"/>
      <path id="DejaVuSans-Bold-39" d="M 641 103 
L 641 966 
Q 928 831 1190 764 
Q 1453 697 1709 697 
Q 2247 697 2547 995 
Q 2847 1294 2900 1881 
Q 2688 1725 2447 1647 
Q 2206 1569 1925 1569 
Q 1209 1569 770 1986 
Q 331 2403 331 3084 
Q 331 3838 820 4291 
Q 1309 4744 2131 4744 
Q 3044 4744 3544 4128 
Q 4044 3513 4044 2388 
Q 4044 1231 3459 570 
Q 2875 -91 1856 -91 
Q 1528 -91 1228 -42 
Q 928 6 641 103 
z
M 2125 2350 
Q 2441 2350 2600 2554 
Q 2759 2759 2759 3169 
Q 2759 3575 2600 3781 
Q 2441 3988 2125 3988 
Q 1809 3988 1650 3781 
Q 1491 3575 1491 3169 
Q 1491 2759 1650 2554 
Q 1809 2350 2125 2350 
z
" transform="scale(0.015625)"/>
     </defs>
     <use xlink:href="#DejaVuSans-Bold-4d"/>
     <use xlink:href="#DejaVuSans-Bold-69" transform="translate(99.511719 0)"/>
     <use xlink:href="#DejaVuSans-Bold-6e" transform="translate(133.789062 0)"/>
     <use xlink:href="#DejaVuSans-Bold-69" transform="translate(204.980469 0)"/>
     <use xlink:href="#DejaVuSans-Bold-6d" transform="translate(239.257812 0)"/>
     <use xlink:href="#DejaVuSans-Bold-75" transform="translate(343.457031 0)"/>
     <use xlink:href="#DejaVuSans-Bold-6d" transform="translate(414.648438 0)"/>
     <use xlink:href="#DejaVuSans-Bold-20" transform="translate(518.847656 0)"/>
     <use xlink:href="#DejaVuSans-Bold-61" transform="translate(553.662109 0)"/>
     <use xlink:href="#DejaVuSans-Bold-74" transform="translate(621.142578 0)"/>
     <use xlink:href="#DejaVuSans-Bold-20" transform="translate(668.945312 0)"/>
     <use xlink:href="#DejaVuSans-Bold-39" transform="translate(703.759766 0)"/>
     <use xlink:href="#DejaVuSans-Bold-30" transform="translate(773.339844 0)"/>
     <use xlink:href="#DejaVuSans-Bold-30" transform="translate(842.919922 0)"/>
     <use xlink:href="#DejaVuSans-Bold-20" transform="translate(912.5 0)"/>
     <use xlink:href="#DejaVuSans-Bold-6e" transform="translate(947.314453 0)"/>
     <use xlink:href="#DejaVuSans-Bold-6d" transform="translate(1018.505859 0)"/>
    </g>
    <!-- (Variance = 0.008×10⁻⁶) -->
    <g transform="translate(547.650459 332.514242) scale(0.11 -0.11)">
     <defs>
      <path id="DejaVuSans-Bold-3d" d="M 678 3084 
L 4684 3084 
L 4684 2350 
L 678 2350 
L 678 3084 
z
M 678 1663 
L 4684 1663 
L 4684 922 
L 678 922 
L 678 1663 
z
" transform="scale(0.015625)"/>
      <path id="DejaVuSans-Bold-2e" d="M 653 1209 
L 1778 1209 
L 1778 0 
L 653 0 
L 653 1209 
z
" transform="scale(0.015625)"/>
      <path id="DejaVuSans-Bold-38" d="M 2228 2088 
Q 1891 2088 1709 1903 
Q 1528 1719 1528 1375 
Q 1528 1031 1709 848 
Q 1891 666 2228 666 
Q 2563 666 2741 848 
Q 2919 1031 2919 1375 
Q 2919 1722 2741 1905 
Q 2563 2088 2228 2088 
z
M 1350 2484 
Q 925 2613 709 2878 
Q 494 3144 494 3541 
Q 494 4131 934 4440 
Q 1375 4750 2228 4750 
Q 3075 4750 3515 4442 
Q 3956 4134 3956 3541 
Q 3956 3144 3739 2878 
Q 3522 2613 3097 2484 
Q 3572 2353 3814 2058 
Q 4056 1763 4056 1313 
Q 4056 619 3595 264 
Q 3134 -91 2228 -91 
Q 1319 -91 855 264 
Q 391 619 391 1313 
Q 391 1763 633 2058 
Q 875 2353 1350 2484 
z
M 1631 3419 
Q 1631 3141 1786 2991 
Q 1941 2841 2228 2841 
Q 2509 2841 2662 2991 
Q 2816 3141 2816 3419 
Q 2816 3697 2662 3845 
Q 2509 3994 2228 3994 
Q 1941 3994 1786 3844 
Q 1631 3694 1631 3419 
z
" transform="scale(0.015625)"/>
     </defs>
     <use xlink:href="#DejaVuSans-Bold-28"/>
     <use xlink:href="#DejaVuSans-Bold-56" transform="translate(45.703125 0)"/>
     <use xlink:href="#DejaVuSans-Bold-61" transform="translate(117.595703 0)"/>
     <use xlink:href="#DejaVuSans-Bold-72" transform="translate(185.076172 0)"/>
     <use xlink:href="#DejaVuSans-Bold-69" transform="translate(234.392578 0)"/>
     <use xlink:href="#DejaVuSans-Bold-61" transform="translate(268.669922 0)"/>
     <use xlink:href="#DejaVuSans-Bold-6e" transform="translate(336.150391 0)"/>
     <use xlink:href="#DejaVuSans-Bold-63" transform="translate(407.341797 0)"/>
     <use xlink:href="#DejaVuSans-Bold-65" transform="translate(466.619141 0)"/>
     <use xlink:href="#DejaVuSans-Bold-20" transform="translate(534.441406 0)"/>
     <use xlink:href="#DejaVuSans-Bold-3d" transform="translate(569.255859 0)"/>
     <use xlink:href="#DejaVuSans-Bold-20" transform="translate(653.044922 0)"/>
     <use xlink:href="#DejaVuSans-Bold-30" transform="translate(687.859375 0)"/>
     <use xlink:href="#DejaVuSans-Bold-2e" transform="translate(757.439453 0)"/>
     <use xlink:href="#DejaVuSans-Bold-30" transform="translate(795.427734 0)"/>
     <use xlink:href="#DejaVuSans-Bold-30" transform="translate(865.007812 0)"/>
     <use xlink:href="#DejaVuSans-Bold-38" transform="translate(934.587891 0)"/>
     <use xlink:href="#DejaVuSans-Bold-d7" transform="translate(1004.167969 0)"/>
     <use xlink:href="#DejaVuSans-Bold-31" transform="translate(1087.957031 0)"/>
     <use xlink:href="#DejaVuSans-Bold-30" transform="translate(1157.537109 0)"/>
     <use xlink:href="#DejaVuSans-Bold-207b" transform="translate(1227.117188 0)"/>
     <use xlink:href="#DejaVuSans-Bold-2076" transform="translate(1279.900391 0)"/>
     <use xlink:href="#DejaVuSans-Bold-29" transform="translate(1323.699219 0)"/>
    </g>
   </g>
   <g id="text_18">
    <!-- Mean Variance -->
    <g style="fill: #808080" transform="translate(91.610663 300.35168) scale(0.1 -0.1)">
     <defs>
      <path id="DejaVuSans-Oblique-4d" d="M 1081 4666 
L 2028 4666 
L 2572 1522 
L 4378 4666 
L 5350 4666 
L 4441 0 
L 3828 0 
L 4622 4091 
L 2791 897 
L 2175 897 
L 1581 4103 
L 788 0 
L 172 0 
L 1081 4666 
z
" transform="scale(0.015625)"/>
      <path id="DejaVuSans-Oblique-65" d="M 3078 2063 
Q 3088 2113 3092 2166 
Q 3097 2219 3097 2272 
Q 3097 2653 2873 2875 
Q 2650 3097 2266 3097 
Q 1838 3097 1509 2826 
Q 1181 2556 1013 2059 
L 3078 2063 
z
M 3578 1613 
L 903 1613 
Q 884 1494 878 1425 
Q 872 1356 872 1306 
Q 872 872 1139 634 
Q 1406 397 1894 397 
Q 2269 397 2603 481 
Q 2938 566 3225 728 
L 3116 159 
Q 2806 34 2476 -28 
Q 2147 -91 1806 -91 
Q 1078 -91 686 257 
Q 294 606 294 1247 
Q 294 1794 489 2264 
Q 684 2734 1063 3103 
Q 1306 3334 1642 3459 
Q 1978 3584 2356 3584 
Q 2950 3584 3301 3228 
Q 3653 2872 3653 2272 
Q 3653 2128 3634 1964 
Q 3616 1800 3578 1613 
z
" transform="scale(0.015625)"/>
      <path id="DejaVuSans-Oblique-61" d="M 3438 1997 
L 3047 0 
L 2472 0 
L 2578 531 
Q 2325 219 2001 64 
Q 1678 -91 1281 -91 
Q 834 -91 548 182 
Q 263 456 263 884 
Q 263 1497 752 1853 
Q 1241 2209 2100 2209 
L 2900 2209 
L 2931 2363 
Q 2938 2388 2941 2417 
Q 2944 2447 2944 2509 
Q 2944 2788 2717 2942 
Q 2491 3097 2081 3097 
Q 1800 3097 1504 3025 
Q 1209 2953 897 2809 
L 997 3341 
Q 1322 3463 1633 3523 
Q 1944 3584 2234 3584 
Q 2853 3584 3176 3315 
Q 3500 3047 3500 2534 
Q 3500 2431 3484 2292 
Q 3469 2153 3438 1997 
z
M 2816 1759 
L 2241 1759 
Q 1534 1759 1195 1570 
Q 856 1381 856 984 
Q 856 709 1029 553 
Q 1203 397 1509 397 
Q 1978 397 2328 733 
Q 2678 1069 2791 1631 
L 2816 1759 
z
" transform="scale(0.015625)"/>
      <path id="DejaVuSans-Oblique-6e" d="M 3566 2113 
L 3156 0 
L 2578 0 
L 2988 2091 
Q 3016 2238 3031 2350 
Q 3047 2463 3047 2528 
Q 3047 2791 2881 2937 
Q 2716 3084 2419 3084 
Q 1956 3084 1622 2776 
Q 1288 2469 1184 1941 
L 800 0 
L 225 0 
L 903 3500 
L 1478 3500 
L 1363 2950 
Q 1603 3253 1940 3418 
Q 2278 3584 2650 3584 
Q 3113 3584 3367 3334 
Q 3622 3084 3622 2631 
Q 3622 2519 3608 2391 
Q 3594 2263 3566 2113 
z
" transform="scale(0.015625)"/>
      <path id="DejaVuSans-Oblique-20" transform="scale(0.015625)"/>
      <path id="DejaVuSans-Oblique-56" d="M 1319 0 
L 500 4666 
L 1119 4666 
L 1797 653 
L 4063 4666 
L 4750 4666 
L 2053 0 
L 1319 0 
z
" transform="scale(0.015625)"/>
      <path id="DejaVuSans-Oblique-72" d="M 2853 2969 
Q 2766 3016 2653 3041 
Q 2541 3066 2413 3066 
Q 1953 3066 1609 2717 
Q 1266 2369 1153 1784 
L 800 0 
L 225 0 
L 909 3500 
L 1484 3500 
L 1375 2956 
Q 1603 3259 1920 3421 
Q 2238 3584 2597 3584 
Q 2691 3584 2781 3573 
Q 2872 3563 2963 3538 
L 2853 2969 
z
" transform="scale(0.015625)"/>
      <path id="DejaVuSans-Oblique-69" d="M 1172 4863 
L 1747 4863 
L 1606 4134 
L 1031 4134 
L 1172 4863 
z
M 909 3500 
L 1484 3500 
L 800 0 
L 225 0 
L 909 3500 
z
" transform="scale(0.015625)"/>
      <path id="DejaVuSans-Oblique-63" d="M 3431 3366 
L 3316 2797 
Q 3109 2947 2876 3022 
Q 2644 3097 2394 3097 
Q 2119 3097 1870 3000 
Q 1622 2903 1453 2725 
Q 1184 2453 1037 2087 
Q 891 1722 891 1331 
Q 891 859 1127 628 
Q 1363 397 1844 397 
Q 2081 397 2348 469 
Q 2616 541 2906 684 
L 2797 116 
Q 2547 13 2283 -39 
Q 2019 -91 1741 -91 
Q 1044 -91 669 257 
Q 294 606 294 1253 
Q 294 1797 489 2255 
Q 684 2713 1069 3078 
Q 1331 3328 1684 3456 
Q 2038 3584 2456 3584 
Q 2700 3584 2940 3529 
Q 3181 3475 3431 3366 
z
" transform="scale(0.015625)"/>
     </defs>
     <use xlink:href="#DejaVuSans-Oblique-4d"/>
     <use xlink:href="#DejaVuSans-Oblique-65" transform="translate(86.279297 0)"/>
     <use xlink:href="#DejaVuSans-Oblique-61" transform="translate(147.802734 0)"/>
     <use xlink:href="#DejaVuSans-Oblique-6e" transform="translate(209.082031 0)"/>
     <use xlink:href="#DejaVuSans-Oblique-20" transform="translate(272.460938 0)"/>
     <use xlink:href="#DejaVuSans-Oblique-56" transform="translate(304.248047 0)"/>
     <use xlink:href="#DejaVuSans-Oblique-61" transform="translate(366.28125 0)"/>
     <use xlink:href="#DejaVuSans-Oblique-72" transform="translate(427.560547 0)"/>
     <use xlink:href="#DejaVuSans-Oblique-69" transform="translate(468.673828 0)"/>
     <use xlink:href="#DejaVuSans-Oblique-61" transform="translate(496.457031 0)"/>
     <use xlink:href="#DejaVuSans-Oblique-6e" transform="translate(557.736328 0)"/>
     <use xlink:href="#DejaVuSans-Oblique-63" transform="translate(621.115234 0)"/>
     <use xlink:href="#DejaVuSans-Oblique-65" transform="translate(676.095703 0)"/>
    </g>
   </g>
   <g id="text_19">
    <!-- Perfusion Index Variance Across Fitzpatrick Skin Types I–VI -->
    <g transform="translate(107.376674 17.837812) scale(0.14 -0.14)">
     <defs>
      <path id="DejaVuSans-Bold-66" d="M 2841 4863 
L 2841 4128 
L 2222 4128 
Q 1984 4128 1890 4042 
Q 1797 3956 1797 3744 
L 1797 3500 
L 2753 3500 
L 2753 2700 
L 1797 2700 
L 1797 0 
L 678 0 
L 678 2700 
L 122 2700 
L 122 3500 
L 678 3500 
L 678 3744 
Q 678 4316 997 4589 
Q 1316 4863 1984 4863 
L 2841 4863 
z
" transform="scale(0.015625)"/>
      <path id="DejaVuSans-Bold-73" d="M 3272 3391 
L 3272 2541 
Q 2913 2691 2578 2766 
Q 2244 2841 1947 2841 
Q 1628 2841 1473 2761 
Q 1319 2681 1319 2516 
Q 1319 2381 1436 2309 
Q 1553 2238 1856 2203 
L 2053 2175 
Q 2913 2066 3209 1816 
Q 3506 1566 3506 1031 
Q 3506 472 3093 190 
Q 2681 -91 1863 -91 
Q 1516 -91 1145 -36 
Q 775 19 384 128 
L 384 978 
Q 719 816 1070 734 
Q 1422 653 1784 653 
Q 2113 653 2278 743 
Q 2444 834 2444 1013 
Q 2444 1163 2330 1236 
Q 2216 1309 1875 1350 
L 1678 1375 
Q 931 1469 631 1722 
Q 331 1975 331 2491 
Q 331 3047 712 3315 
Q 1094 3584 1881 3584 
Q 2191 3584 2531 3537 
Q 2872 3491 3272 3391 
z
" transform="scale(0.015625)"/>
      <path id="DejaVuSans-Bold-6f" d="M 2203 2784 
Q 1831 2784 1636 2517 
Q 1441 2250 1441 1747 
Q 1441 1244 1636 976 
Q 1831 709 2203 709 
Q 2569 709 2762 976 
Q 2956 1244 2956 1747 
Q 2956 2250 2762 2517 
Q 2569 2784 2203 2784 
z
M 2203 3584 
Q 3106 3584 3614 3096 
Q 4122 2609 4122 1747 
Q 4122 884 3614 396 
Q 3106 -91 2203 -91 
Q 1297 -91 786 396 
Q 275 884 275 1747 
Q 275 2609 786 3096 
Q 1297 3584 2203 3584 
z
" transform="scale(0.015625)"/>
      <path id="DejaVuSans-Bold-64" d="M 2919 2988 
L 2919 4863 
L 4044 4863 
L 4044 0 
L 2919 0 
L 2919 506 
Q 2688 197 2409 53 
Q 2131 -91 1766 -91 
Q 1119 -91 703 423 
Q 288 938 288 1747 
Q 288 2556 703 3070 
Q 1119 3584 1766 3584 
Q 2128 3584 2408 3439 
Q 2688 3294 2919 2988 
z
M 2181 722 
Q 2541 722 2730 984 
Q 2919 1247 2919 1747 
Q 2919 2247 2730 2509 
Q 2541 2772 2181 2772 
Q 1825 2772 1636 2509 
Q 1447 2247 1447 1747 
Q 1447 1247 1636 984 
Q 1825 722 2181 722 
z
" transform="scale(0.015625)"/>
      <path id="DejaVuSans-Bold-78" d="M 1422 1791 
L 159 3500 
L 1344 3500 
L 2059 2463 
L 2784 3500 
L 3969 3500 
L 2706 1797 
L 4031 0 
L 2847 0 
L 2059 1106 
L 1281 0 
L 97 0 
L 1422 1791 
z
" transform="scale(0.015625)"/>
      <path id="DejaVuSans-Bold-41" d="M 3419 850 
L 1538 850 
L 1241 0 
L 31 0 
L 1759 4666 
L 3194 4666 
L 4922 0 
L 3713 0 
L 3419 850 
z
M 1838 1716 
L 3116 1716 
L 2478 3572 
L 1838 1716 
z
" transform="scale(0.015625)"/>
      <path id="DejaVuSans-Bold-46" d="M 588 4666 
L 3834 4666 
L 3834 3756 
L 1791 3756 
L 1791 2888 
L 3713 2888 
L 3713 1978 
L 1791 1978 
L 1791 0 
L 588 0 
L 588 4666 
z
" transform="scale(0.015625)"/>
      <path id="DejaVuSans-Bold-7a" d="M 366 3500 
L 3419 3500 
L 3419 2719 
L 1575 800 
L 3419 800 
L 3419 0 
L 288 0 
L 288 781 
L 2131 2700 
L 366 2700 
L 366 3500 
z
" transform="scale(0.015625)"/>
      <path id="DejaVuSans-Bold-70" d="M 1656 506 
L 1656 -1331 
L 538 -1331 
L 538 3500 
L 1656 3500 
L 1656 2988 
Q 1888 3294 2169 3439 
Q 2450 3584 2816 3584 
Q 3463 3584 3878 3070 
Q 4294 2556 4294 1747 
Q 4294 938 3878 423 
Q 3463 -91 2816 -91 
Q 2450 -91 2169 54 
Q 1888 200 1656 506 
z
M 2400 2772 
Q 2041 2772 1848 2508 
Q 1656 2244 1656 1747 
Q 1656 1250 1848 986 
Q 2041 722 2400 722 
Q 2759 722 2948 984 
Q 3138 1247 3138 1747 
Q 3138 2247 2948 2509 
Q 2759 2772 2400 2772 
z
" transform="scale(0.015625)"/>
      <path id="DejaVuSans-Bold-6b" d="M 538 4863 
L 1656 4863 
L 1656 2216 
L 2944 3500 
L 4244 3500 
L 2534 1894 
L 4378 0 
L 3022 0 
L 1656 1459 
L 1656 0 
L 538 0 
L 538 4863 
z
" transform="scale(0.015625)"/>
      <path id="DejaVuSans-Bold-53" d="M 3834 4519 
L 3834 3531 
Q 3450 3703 3084 3790 
Q 2719 3878 2394 3878 
Q 1963 3878 1756 3759 
Q 1550 3641 1550 3391 
Q 1550 3203 1689 3098 
Q 1828 2994 2194 2919 
L 2706 2816 
Q 3484 2659 3812 2340 
Q 4141 2022 4141 1434 
Q 4141 663 3683 286 
Q 3225 -91 2284 -91 
Q 1841 -91 1394 -6 
Q 947 78 500 244 
L 500 1259 
Q 947 1022 1364 901 
Q 1781 781 2169 781 
Q 2563 781 2772 912 
Q 2981 1044 2981 1288 
Q 2981 1506 2839 1625 
Q 2697 1744 2272 1838 
L 1806 1941 
Q 1106 2091 782 2419 
Q 459 2747 459 3303 
Q 459 4000 909 4375 
Q 1359 4750 2203 4750 
Q 2588 4750 2994 4692 
Q 3400 4634 3834 4519 
z
" transform="scale(0.015625)"/>
      <path id="DejaVuSans-Bold-54" d="M 31 4666 
L 4331 4666 
L 4331 3756 
L 2784 3756 
L 2784 0 
L 1581 0 
L 1581 3756 
L 31 3756 
L 31 4666 
z
" transform="scale(0.015625)"/>
      <path id="DejaVuSans-Bold-79" d="M 78 3500 
L 1197 3500 
L 2138 1125 
L 2938 3500 
L 4056 3500 
L 2584 -331 
Q 2363 -916 2067 -1148 
Q 1772 -1381 1288 -1381 
L 641 -1381 
L 641 -647 
L 991 -647 
Q 1275 -647 1404 -556 
Q 1534 -466 1606 -231 
L 1638 -134 
L 78 3500 
z
" transform="scale(0.015625)"/>
      <path id="DejaVuSans-Bold-2013" d="M 344 2156 
L 2856 2156 
L 2856 1350 
L 344 1350 
L 344 2156 
z
" transform="scale(0.015625)"/>
     </defs>
     <use xlink:href="#DejaVuSans-Bold-50"/>
     <use xlink:href="#DejaVuSans-Bold-65" transform="translate(73.291016 0)"/>
     <use xlink:href="#DejaVuSans-Bold-72" transform="translate(141.113281 0)"/>
     <use xlink:href="#DejaVuSans-Bold-66" transform="translate(190.429688 0)"/>
     <use xlink:href="#DejaVuSans-Bold-75" transform="translate(233.935547 0)"/>
     <use xlink:href="#DejaVuSans-Bold-73" transform="translate(305.126953 0)"/>
     <use xlink:href="#DejaVuSans-Bold-69" transform="translate(364.648438 0)"/>
     <use xlink:href="#DejaVuSans-Bold-6f" transform="translate(398.925781 0)"/>
     <use xlink:href="#DejaVuSans-Bold-6e" transform="translate(467.626953 0)"/>
     <use xlink:href="#DejaVuSans-Bold-20" transform="translate(538.818359 0)"/>
     <use xlink:href="#DejaVuSans-Bold-49" transform="translate(573.632812 0)"/>
     <use xlink:href="#DejaVuSans-Bold-6e" transform="translate(610.839844 0)"/>
     <use xlink:href="#DejaVuSans-Bold-64" transform="translate(682.03125 0)"/>
     <use xlink:href="#DejaVuSans-Bold-65" transform="translate(753.613281 0)"/>
     <use xlink:href="#DejaVuSans-Bold-78" transform="translate(821.435547 0)"/>
     <use xlink:href="#DejaVuSans-Bold-20" transform="translate(885.9375 0)"/>
     <use xlink:href="#DejaVuSans-Bold-56" transform="translate(920.751953 0)"/>
     <use xlink:href="#DejaVuSans-Bold-61" transform="translate(992.644531 0)"/>
     <use xlink:href="#DejaVuSans-Bold-72" transform="translate(1060.125 0)"/>
     <use xlink:href="#DejaVuSans-Bold-69" transform="translate(1109.441406 0)"/>
     <use xlink:href="#DejaVuSans-Bold-61" transform="translate(1143.71875 0)"/>
     <use xlink:href="#DejaVuSans-Bold-6e" transform="translate(1211.199219 0)"/>
     <use xlink:href="#DejaVuSans-Bold-63" transform="translate(1282.390625 0)"/>
     <use xlink:href="#DejaVuSans-Bold-65" transform="translate(1341.667969 0)"/>
     <use xlink:href="#DejaVuSans-Bold-20" transform="translate(1409.490234 0)"/>
     <use xlink:href="#DejaVuSans-Bold-41" transform="translate(1444.304688 0)"/>
     <use xlink:href="#DejaVuSans-Bold-63" transform="translate(1521.697266 0)"/>
     <use xlink:href="#DejaVuSans-Bold-72" transform="translate(1580.974609 0)"/>
     <use xlink:href="#DejaVuSans-Bold-6f" transform="translate(1630.291016 0)"/>
     <use xlink:href="#DejaVuSans-Bold-73" transform="translate(1698.992188 0)"/>
     <use xlink:href="#DejaVuSans-Bold-73" transform="translate(1758.513672 0)"/>
     <use xlink:href="#DejaVuSans-Bold-20" transform="translate(1818.035156 0)"/>
     <use xlink:href="#DejaVuSans-Bold-46" transform="translate(1852.849609 0)"/>
     <use xlink:href="#DejaVuSans-Bold-69" transform="translate(1921.160156 0)"/>
     <use xlink:href="#DejaVuSans-Bold-74" transform="translate(1955.4375 0)"/>
     <use xlink:href="#DejaVuSans-Bold-7a" transform="translate(2003.240234 0)"/>
     <use xlink:href="#DejaVuSans-Bold-70" transform="translate(2061.443359 0)"/>
     <use xlink:href="#DejaVuSans-Bold-61" transform="translate(2133.025391 0)"/>
     <use xlink:href="#DejaVuSans-Bold-74" transform="translate(2200.505859 0)"/>
     <use xlink:href="#DejaVuSans-Bold-72" transform="translate(2248.308594 0)"/>
     <use xlink:href="#DejaVuSans-Bold-69" transform="translate(2297.625 0)"/>
     <use xlink:href="#DejaVuSans-Bold-63" transform="translate(2331.902344 0)"/>
     <use xlink:href="#DejaVuSans-Bold-6b" transform="translate(2391.179688 0)"/>
     <use xlink:href="#DejaVuSans-Bold-20" transform="translate(2457.683594 0)"/>
     <use xlink:href="#DejaVuSans-Bold-53" transform="translate(2492.498047 0)"/>
     <use xlink:href="#DejaVuSans-Bold-6b" transform="translate(2564.519531 0)"/>
     <use xlink:href="#DejaVuSans-Bold-69" transform="translate(2631.023438 0)"/>
     <use xlink:href="#DejaVuSans-Bold-6e" transform="translate(2665.300781 0)"/>
     <use xlink:href="#DejaVuSans-Bold-20" transform="translate(2736.492188 0)"/>
     <use xlink:href="#DejaVuSans-Bold-54" transform="translate(2771.306641 0)"/>
     <use xlink:href="#DejaVuSans-Bold-79" transform="translate(2827.644531 0)"/>
     <use xlink:href="#DejaVuSans-Bold-70" transform="translate(2892.830078 0)"/>
     <use xlink:href="#DejaVuSans-Bold-65" transform="translate(2964.412109 0)"/>
     <use xlink:href="#DejaVuSans-Bold-73" transform="translate(3032.234375 0)"/>
     <use xlink:href="#DejaVuSans-Bold-20" transform="translate(3091.755859 0)"/>
     <use xlink:href="#DejaVuSans-Bold-49" transform="translate(3126.570312 0)"/>
     <use xlink:href="#DejaVuSans-Bold-2013" transform="translate(3163.777344 0)"/>
     <use xlink:href="#DejaVuSans-Bold-56" transform="translate(3213.777344 0)"/>
     <use xlink:href="#DejaVuSans-Bold-49" transform="translate(3291.169922 0)"/>
    </g>
    <!-- (Lower variance = higher melanin resistance) -->
    <g transform="translate(160.240893 33.624125) scale(0.14 -0.14)">
     <defs>
      <path id="DejaVuSans-Bold-4c" d="M 588 4666 
L 1791 4666 
L 1791 909 
L 3903 909 
L 3903 0 
L 588 0 
L 588 4666 
z
" transform="scale(0.015625)"/>
      <path id="DejaVuSans-Bold-77" d="M 225 3500 
L 1313 3500 
L 1900 1088 
L 2491 3500 
L 3425 3500 
L 4013 1113 
L 4603 3500 
L 5691 3500 
L 4769 0 
L 3547 0 
L 2956 2406 
L 2369 0 
L 1147 0 
L 225 3500 
z
" transform="scale(0.015625)"/>
     </defs>
     <use xlink:href="#DejaVuSans-Bold-28"/>
     <use xlink:href="#DejaVuSans-Bold-4c" transform="translate(45.703125 0)"/>
     <use xlink:href="#DejaVuSans-Bold-6f" transform="translate(109.423828 0)"/>
     <use xlink:href="#DejaVuSans-Bold-77" transform="translate(178.125 0)"/>
     <use xlink:href="#DejaVuSans-Bold-65" transform="translate(270.507812 0)"/>
     <use xlink:href="#DejaVuSans-Bold-72" transform="translate(338.330078 0)"/>
     <use xlink:href="#DejaVuSans-Bold-20" transform="translate(387.646484 0)"/>
     <use xlink:href="#DejaVuSans-Bold-76" transform="translate(422.460938 0)"/>
     <use xlink:href="#DejaVuSans-Bold-61" transform="translate(487.646484 0)"/>
     <use xlink:href="#DejaVuSans-Bold-72" transform="translate(555.126953 0)"/>
     <use xlink:href="#DejaVuSans-Bold-69" transform="translate(604.443359 0)"/>
     <use xlink:href="#DejaVuSans-Bold-61" transform="translate(638.720703 0)"/>
     <use xlink:href="#DejaVuSans-Bold-6e" transform="translate(706.201172 0)"/>
     <use xlink:href="#DejaVuSans-Bold-63" transform="translate(777.392578 0)"/>
     <use xlink:href="#DejaVuSans-Bold-65" transform="translate(836.669922 0)"/>
     <use xlink:href="#DejaVuSans-Bold-20" transform="translate(904.492188 0)"/>
     <use xlink:href="#DejaVuSans-Bold-3d" transform="translate(939.306641 0)"/>
     <use xlink:href="#DejaVuSans-Bold-20" transform="translate(1023.095703 0)"/>
     <use xlink:href="#DejaVuSans-Bold-68" transform="translate(1057.910156 0)"/>
     <use xlink:href="#DejaVuSans-Bold-69" transform="translate(1129.101562 0)"/>
     <use xlink:href="#DejaVuSans-Bold-67" transform="translate(1163.378906 0)"/>
     <use xlink:href="#DejaVuSans-Bold-68" transform="translate(1234.960938 0)"/>
     <use xlink:href="#DejaVuSans-Bold-65" transform="translate(1306.152344 0)"/>
     <use xlink:href="#DejaVuSans-Bold-72" transform="translate(1373.974609 0)"/>
     <use xlink:href="#DejaVuSans-Bold-20" transform="translate(1423.291016 0)"/>
     <use xlink:href="#DejaVuSans-Bold-6d" transform="translate(1458.105469 0)"/>
     <use xlink:href="#DejaVuSans-Bold-65" transform="translate(1562.304688 0)"/>
     <use xlink:href="#DejaVuSans-Bold-6c" transform="translate(1630.126953 0)"/>
     <use xlink:href="#DejaVuSans-Bold-61" transform="translate(1664.404297 0)"/>
     <use xlink:href="#DejaVuSans-Bold-6e" transform="translate(1731.884766 0)"/>
     <use xlink:href="#DejaVuSans-Bold-69" transform="translate(1803.076172 0)"/>
     <use xlink:href="#DejaVuSans-Bold-6e" transform="translate(1837.353516 0)"/>
     <use xlink:href="#DejaVuSans-Bold-20" transform="translate(1908.544922 0)"/>
     <use xlink:href="#DejaVuSans-Bold-72" transform="translate(1943.359375 0)"/>
     <use xlink:href="#DejaVuSans-Bold-65" transform="translate(1992.675781 0)"/>
     <use xlink:href="#DejaVuSans-Bold-73" transform="translate(2060.498047 0)"/>
     <use xlink:href="#DejaVuSans-Bold-69" transform="translate(2120.019531 0)"/>
     <use xlink:href="#DejaVuSans-Bold-73" transform="translate(2154.296875 0)"/>
     <use xlink:href="#DejaVuSans-Bold-74" transform="translate(2213.818359 0)"/>
     <use xlink:href="#DejaVuSans-Bold-61" transform="translate(2261.621094 0)"/>
     <use xlink:href="#DejaVuSans-Bold-6e" transform="translate(2329.101562 0)"/>
     <use xlink:href="#DejaVuSans-Bold-63" transform="translate(2400.292969 0)"/>
     <use xlink:href="#DejaVuSans-Bold-65" transform="translate(2459.570312 0)"/>
     <use xlink:href="#DejaVuSans-Bold-29" transform="translate(2527.392578 0)"/>
    </g>
   </g>
   <g id="PathCollection_1">
    <defs>
     <path id="m2087fbdaf1" d="M 0 -7.905694 
L -1.774939 -2.442994 
L -7.518762 -2.442994 
L -2.871911 0.933141 
L -4.64685 6.395841 
L -0 3.019706 
L 4.64685 6.395841 
L 2.871911 0.933141 
L 7.518762 -2.442994 
L 1.774939 -2.442994 
z
" style="stroke: #ffffff; stroke-width: 2"/>
    </defs>
    <g clip-path="url(#p512be488b3)">
     <use xlink:href="#m2087fbdaf1" x="495.827755" y="373.567742" style="fill: #e74c3c; stroke: #ffffff; stroke-width: 2"/>
    </g>
   </g>
   <g id="legend_1">
    <g id="patch_10">
     <path d="M 396.696473 105.861937 
L 622.866786 105.861937 
Q 625.066786 105.861937 625.066786 103.661937 
L 625.066786 56.324125 
Q 625.066786 54.124125 622.866786 54.124125 
L 396.696473 54.124125 
Q 394.496473 54.124125 394.496473 56.324125 
L 394.496473 103.661937 
Q 394.496473 105.861937 396.696473 105.861937 
z
" style="fill: #ffffff; opacity: 0.95; stroke: #808080; stroke-linejoin: miter"/>
    </g>
    <g id="line2d_82">
     <path d="M 398.896473 63.032406 
L 409.896473 63.032406 
L 420.896473 63.032406 
" style="fill: none; stroke: #2c3e50; stroke-width: 2.5; stroke-linecap: square"/>
     <g>
      <use xlink:href="#mfeb65f8a2b" x="409.896473" y="63.032406" style="fill: #3498db; stroke: #2c3e50; stroke-width: 1.5"/>
     </g>
    </g>
    <g id="text_20">
     <!-- PI Variance -->
     <g transform="translate(429.696473 66.882406) scale(0.11 -0.11)">
      <defs>
       <path id="DejaVuSans-50" d="M 1259 4147 
L 1259 2394 
L 2053 2394 
Q 2494 2394 2734 2622 
Q 2975 2850 2975 3272 
Q 2975 3691 2734 3919 
Q 2494 4147 2053 4147 
L 1259 4147 
z
M 628 4666 
L 2053 4666 
Q 2838 4666 3239 4311 
Q 3641 3956 3641 3272 
Q 3641 2581 3239 2228 
Q 2838 1875 2053 1875 
L 1259 1875 
L 1259 0 
L 628 0 
L 628 4666 
z
" transform="scale(0.015625)"/>
       <path id="DejaVuSans-49" d="M 628 4666 
L 1259 4666 
L 1259 0 
L 628 0 
L 628 4666 
z
" transform="scale(0.015625)"/>
       <path id="DejaVuSans-20" transform="scale(0.015625)"/>
       <path id="DejaVuSans-56" d="M 1831 0 
L 50 4666 
L 709 4666 
L 2188 738 
L 3669 4666 
L 4325 4666 
L 2547 0 
L 1831 0 
z
" transform="scale(0.015625)"/>
       <path id="DejaVuSans-61" d="M 2194 1759 
Q 1497 1759 1228 1600 
Q 959 1441 959 1056 
Q 959 750 1161 570 
Q 1363 391 1709 391 
Q 2188 391 2477 730 
Q 2766 1069 2766 1631 
L 2766 1759 
L 2194 1759 
z
M 3341 1997 
L 3341 0 
L 2766 0 
L 2766 531 
Q 2569 213 2275 61 
Q 1981 -91 1556 -91 
Q 1019 -91 701 211 
Q 384 513 384 1019 
Q 384 1609 779 1909 
Q 1175 2209 1959 2209 
L 2766 2209 
L 2766 2266 
Q 2766 2663 2505 2880 
Q 2244 3097 1772 3097 
Q 1472 3097 1187 3025 
Q 903 2953 641 2809 
L 641 3341 
Q 956 3463 1253 3523 
Q 1550 3584 1831 3584 
Q 2591 3584 2966 3190 
Q 3341 2797 3341 1997 
z
" transform="scale(0.015625)"/>
       <path id="DejaVuSans-72" d="M 2631 2963 
Q 2534 3019 2420 3045 
Q 2306 3072 2169 3072 
Q 1681 3072 1420 2755 
Q 1159 2438 1159 1844 
L 1159 0 
L 581 0 
L 581 3500 
L 1159 3500 
L 1159 2956 
Q 1341 3275 1631 3429 
Q 1922 3584 2338 3584 
Q 2397 3584 2469 3576 
Q 2541 3569 2628 3553 
L 2631 2963 
z
" transform="scale(0.015625)"/>
       <path id="DejaVuSans-69" d="M 603 3500 
L 1178 3500 
L 1178 0 
L 603 0 
L 603 3500 
z
M 603 4863 
L 1178 4863 
L 1178 4134 
L 603 4134 
L 603 4863 
z
" transform="scale(0.015625)"/>
       <path id="DejaVuSans-6e" d="M 3513 2113 
L 3513 0 
L 2938 0 
L 2938 2094 
Q 2938 2591 2744 2837 
Q 2550 3084 2163 3084 
Q 1697 3084 1428 2787 
Q 1159 2491 1159 1978 
L 1159 0 
L 581 0 
L 581 3500 
L 1159 3500 
L 1159 2956 
Q 1366 3272 1645 3428 
Q 1925 3584 2291 3584 
Q 2894 3584 3203 3211 
Q 3513 2838 3513 2113 
z
" transform="scale(0.015625)"/>
       <path id="DejaVuSans-63" d="M 3122 3366 
L 3122 2828 
Q 2878 2963 2633 3030 
Q 2388 3097 2138 3097 
Q 1578 3097 1268 2742 
Q 959 2388 959 1747 
Q 959 1106 1268 751 
Q 1578 397 2138 397 
Q 2388 397 2633 464 
Q 2878 531 3122 666 
L 3122 134 
Q 2881 22 2623 -34 
Q 2366 -91 2075 -91 
Q 1284 -91 818 406 
Q 353 903 353 1747 
Q 353 2603 823 3093 
Q 1294 3584 2113 3584 
Q 2378 3584 2631 3529 
Q 2884 3475 3122 3366 
z
" transform="scale(0.015625)"/>
       <path id="DejaVuSans-65" d="M 3597 1894 
L 3597 1613 
L 953 1613 
Q 991 1019 1311 708 
Q 1631 397 2203 397 
Q 2534 397 2845 478 
Q 3156 559 3463 722 
L 3463 178 
Q 3153 47 2828 -22 
Q 2503 -91 2169 -91 
Q 1331 -91 842 396 
Q 353 884 353 1716 
Q 353 2575 817 3079 
Q 1281 3584 2069 3584 
Q 2775 3584 3186 3129 
Q 3597 2675 3597 1894 
z
M 3022 2063 
Q 3016 2534 2758 2815 
Q 2500 3097 2075 3097 
Q 1594 3097 1305 2825 
Q 1016 2553 972 2059 
L 3022 2063 
z
" transform="scale(0.015625)"/>
      </defs>
      <use xlink:href="#DejaVuSans-50"/>
      <use xlink:href="#DejaVuSans-49" transform="translate(60.302734 0)"/>
      <use xlink:href="#DejaVuSans-20" transform="translate(89.794922 0)"/>
      <use xlink:href="#DejaVuSans-56" transform="translate(121.582031 0)"/>
      <use xlink:href="#DejaVuSans-61" transform="translate(182.240234 0)"/>
      <use xlink:href="#DejaVuSans-72" transform="translate(243.519531 0)"/>
      <use xlink:href="#DejaVuSans-69" transform="translate(284.632812 0)"/>
      <use xlink:href="#DejaVuSans-61" transform="translate(312.416016 0)"/>
      <use xlink:href="#DejaVuSans-6e" transform="translate(373.695312 0)"/>
      <use xlink:href="#DejaVuSans-63" transform="translate(437.074219 0)"/>
      <use xlink:href="#DejaVuSans-65" transform="translate(492.054688 0)"/>
     </g>
    </g>
    <g id="PathCollection_2">
     <g>
      <use xlink:href="#m2087fbdaf1" x="409.896473" y="80.140844" style="fill: #e74c3c; stroke: #ffffff; stroke-width: 2"/>
     </g>
    </g>
    <g id="text_21">
     <!-- Optimal: 900 nm -->
     <g transform="translate(429.696473 83.028344) scale(0.11 -0.11)">
      <defs>
       <path id="DejaVuSans-4f" d="M 2522 4238 
Q 1834 4238 1429 3725 
Q 1025 3213 1025 2328 
Q 1025 1447 1429 934 
Q 1834 422 2522 422 
Q 3209 422 3611 934 
Q 4013 1447 4013 2328 
Q 4013 3213 3611 3725 
Q 3209 4238 2522 4238 
z
M 2522 4750 
Q 3503 4750 4090 4092 
Q 4678 3434 4678 2328 
Q 4678 1225 4090 567 
Q 3503 -91 2522 -91 
Q 1538 -91 948 565 
Q 359 1222 359 2328 
Q 359 3434 948 4092 
Q 1538 4750 2522 4750 
z
" transform="scale(0.015625)"/>
       <path id="DejaVuSans-70" d="M 1159 525 
L 1159 -1331 
L 581 -1331 
L 581 3500 
L 1159 3500 
L 1159 2969 
Q 1341 3281 1617 3432 
Q 1894 3584 2278 3584 
Q 2916 3584 3314 3078 
Q 3713 2572 3713 1747 
Q 3713 922 3314 415 
Q 2916 -91 2278 -91 
Q 1894 -91 1617 61 
Q 1341 213 1159 525 
z
M 3116 1747 
Q 3116 2381 2855 2742 
Q 2594 3103 2138 3103 
Q 1681 3103 1420 2742 
Q 1159 2381 1159 1747 
Q 1159 1113 1420 752 
Q 1681 391 2138 391 
Q 2594 391 2855 752 
Q 3116 1113 3116 1747 
z
" transform="scale(0.015625)"/>
       <path id="DejaVuSans-74" d="M 1172 4494 
L 1172 3500 
L 2356 3500 
L 2356 3053 
L 1172 3053 
L 1172 1153 
Q 1172 725 1289 603 
Q 1406 481 1766 481 
L 2356 481 
L 2356 0 
L 1766 0 
Q 1100 0 847 248 
Q 594 497 594 1153 
L 594 3053 
L 172 3053 
L 172 3500 
L 594 3500 
L 594 4494 
L 1172 4494 
z
" transform="scale(0.015625)"/>
       <path id="DejaVuSans-6d" d="M 3328 2828 
Q 3544 3216 3844 3400 
Q 4144 3584 4550 3584 
Q 5097 3584 5394 3201 
Q 5691 2819 5691 2113 
L 5691 0 
L 5113 0 
L 5113 2094 
Q 5113 2597 4934 2840 
Q 4756 3084 4391 3084 
Q 3944 3084 3684 2787 
Q 3425 2491 3425 1978 
L 3425 0 
L 2847 0 
L 2847 2094 
Q 2847 2600 2669 2842 
Q 2491 3084 2119 3084 
Q 1678 3084 1418 2786 
Q 1159 2488 1159 1978 
L 1159 0 
L 581 0 
L 581 3500 
L 1159 3500 
L 1159 2956 
Q 1356 3278 1631 3431 
Q 1906 3584 2284 3584 
Q 2666 3584 2933 3390 
Q 3200 3197 3328 2828 
z
" transform="scale(0.015625)"/>
       <path id="DejaVuSans-6c" d="M 603 4863 
L 1178 4863 
L 1178 0 
L 603 0 
L 603 4863 
z
" transform="scale(0.015625)"/>
       <path id="DejaVuSans-3a" d="M 750 794 
L 1409 794 
L 1409 0 
L 750 0 
L 750 794 
z
M 750 3309 
L 1409 3309 
L 1409 2516 
L 750 2516 
L 750 3309 
z
" transform="scale(0.015625)"/>
      </defs>
      <use xlink:href="#DejaVuSans-4f"/>
      <use xlink:href="#DejaVuSans-70" transform="translate(78.710938 0)"/>
      <use xlink:href="#DejaVuSans-74" transform="translate(142.1875 0)"/>
      <use xlink:href="#DejaVuSans-69" transform="translate(181.396484 0)"/>
      <use xlink:href="#DejaVuSans-6d" transform="translate(209.179688 0)"/>
      <use xlink:href="#DejaVuSans-61" transform="translate(306.591797 0)"/>
      <use xlink:href="#DejaVuSans-6c" transform="translate(367.871094 0)"/>
      <use xlink:href="#DejaVuSans-3a" transform="translate(395.654297 0)"/>
      <use xlink:href="#DejaVuSans-20" transform="translate(429.345703 0)"/>
      <use xlink:href="#DejaVuSans-39" transform="translate(461.132812 0)"/>
      <use xlink:href="#DejaVuSans-30" transform="translate(524.755859 0)"/>
      <use xlink:href="#DejaVuSans-30" transform="translate(588.378906 0)"/>
      <use xlink:href="#DejaVuSans-20" transform="translate(652.001953 0)"/>
      <use xlink:href="#DejaVuSans-6e" transform="translate(683.789062 0)"/>
      <use xlink:href="#DejaVuSans-6d" transform="translate(747.167969 0)"/>
     </g>
    </g>
    <g id="patch_11">
     <path d="M 398.896473 99.174281 
L 420.896473 99.174281 
L 420.896473 91.474281 
L 398.896473 91.474281 
z
" style="fill: #27ae60; opacity: 0.15; stroke: #27ae60; stroke-linejoin: miter"/>
    </g>
    <g id="text_22">
     <!-- Near-IR Region (Melanin Resistant) -->
     <g transform="translate(429.696473 99.174281) scale(0.11 -0.11)">
      <defs>
       <path id="DejaVuSans-4e" d="M 628 4666 
L 1478 4666 
L 3547 763 
L 3547 4666 
L 4159 4666 
L 4159 0 
L 3309 0 
L 1241 3903 
L 1241 0 
L 628 0 
L 628 4666 
z
" transform="scale(0.015625)"/>
       <path id="DejaVuSans-2d" d="M 313 2009 
L 1997 2009 
L 1997 1497 
L 313 1497 
L 313 2009 
z
" transform="scale(0.015625)"/>
       <path id="DejaVuSans-52" d="M 2841 2188 
Q 3044 2119 3236 1894 
Q 3428 1669 3622 1275 
L 4263 0 
L 3584 0 
L 2988 1197 
Q 2756 1666 2539 1819 
Q 2322 1972 1947 1972 
L 1259 1972 
L 1259 0 
L 628 0 
L 628 4666 
L 2053 4666 
Q 2853 4666 3247 4331 
Q 3641 3997 3641 3322 
Q 3641 2881 3436 2590 
Q 3231 2300 2841 2188 
z
M 1259 4147 
L 1259 2491 
L 2053 2491 
Q 2509 2491 2742 2702 
Q 2975 2913 2975 3322 
Q 2975 3731 2742 3939 
Q 2509 4147 2053 4147 
L 1259 4147 
z
" transform="scale(0.015625)"/>
       <path id="DejaVuSans-67" d="M 2906 1791 
Q 2906 2416 2648 2759 
Q 2391 3103 1925 3103 
Q 1463 3103 1205 2759 
Q 947 2416 947 1791 
Q 947 1169 1205 825 
Q 1463 481 1925 481 
Q 2391 481 2648 825 
Q 2906 1169 2906 1791 
z
M 3481 434 
Q 3481 -459 3084 -895 
Q 2688 -1331 1869 -1331 
Q 1566 -1331 1297 -1286 
Q 1028 -1241 775 -1147 
L 775 -588 
Q 1028 -725 1275 -790 
Q 1522 -856 1778 -856 
Q 2344 -856 2625 -561 
Q 2906 -266 2906 331 
L 2906 616 
Q 2728 306 2450 153 
Q 2172 0 1784 0 
Q 1141 0 747 490 
Q 353 981 353 1791 
Q 353 2603 747 3093 
Q 1141 3584 1784 3584 
Q 2172 3584 2450 3431 
Q 2728 3278 2906 2969 
L 2906 3500 
L 3481 3500 
L 3481 434 
z
" transform="scale(0.015625)"/>
       <path id="DejaVuSans-6f" d="M 1959 3097 
Q 1497 3097 1228 2736 
Q 959 2375 959 1747 
Q 959 1119 1226 758 
Q 1494 397 1959 397 
Q 2419 397 2687 759 
Q 2956 1122 2956 1747 
Q 2956 2369 2687 2733 
Q 2419 3097 1959 3097 
z
M 1959 3584 
Q 2709 3584 3137 3096 
Q 3566 2609 3566 1747 
Q 3566 888 3137 398 
Q 2709 -91 1959 -91 
Q 1206 -91 779 398 
Q 353 888 353 1747 
Q 353 2609 779 3096 
Q 1206 3584 1959 3584 
z
" transform="scale(0.015625)"/>
       <path id="DejaVuSans-28" d="M 1984 4856 
Q 1566 4138 1362 3434 
Q 1159 2731 1159 2009 
Q 1159 1288 1364 580 
Q 1569 -128 1984 -844 
L 1484 -844 
Q 1016 -109 783 600 
Q 550 1309 550 2009 
Q 550 2706 781 3412 
Q 1013 4119 1484 4856 
L 1984 4856 
z
" transform="scale(0.015625)"/>
       <path id="DejaVuSans-4d" d="M 628 4666 
L 1569 4666 
L 2759 1491 
L 3956 4666 
L 4897 4666 
L 4897 0 
L 4281 0 
L 4281 4097 
L 3078 897 
L 2444 897 
L 1241 4097 
L 1241 0 
L 628 0 
L 628 4666 
z
" transform="scale(0.015625)"/>
       <path id="DejaVuSans-73" d="M 2834 3397 
L 2834 2853 
Q 2591 2978 2328 3040 
Q 2066 3103 1784 3103 
Q 1356 3103 1142 2972 
Q 928 2841 928 2578 
Q 928 2378 1081 2264 
Q 1234 2150 1697 2047 
L 1894 2003 
Q 2506 1872 2764 1633 
Q 3022 1394 3022 966 
Q 3022 478 2636 193 
Q 2250 -91 1575 -91 
Q 1294 -91 989 -36 
Q 684 19 347 128 
L 347 722 
Q 666 556 975 473 
Q 1284 391 1588 391 
Q 1994 391 2212 530 
Q 2431 669 2431 922 
Q 2431 1156 2273 1281 
Q 2116 1406 1581 1522 
L 1381 1569 
Q 847 1681 609 1914 
Q 372 2147 372 2553 
Q 372 3047 722 3315 
Q 1072 3584 1716 3584 
Q 2034 3584 2315 3537 
Q 2597 3491 2834 3397 
z
" transform="scale(0.015625)"/>
       <path id="DejaVuSans-29" d="M 513 4856 
L 1013 4856 
Q 1481 4119 1714 3412 
Q 1947 2706 1947 2009 
Q 1947 1309 1714 600 
Q 1481 -109 1013 -844 
L 513 -844 
Q 928 -128 1133 580 
Q 1338 1288 1338 2009 
Q 1338 2731 1133 3434 
Q 928 4138 513 4856 
z
" transform="scale(0.015625)"/>
      </defs>
      <use xlink:href="#DejaVuSans-4e"/>
      <use xlink:href="#DejaVuSans-65" transform="translate(74.804688 0)"/>
      <use xlink:href="#DejaVuSans-61" transform="translate(136.328125 0)"/>
      <use xlink:href="#DejaVuSans-72" transform="translate(197.607422 0)"/>
      <use xlink:href="#DejaVuSans-2d" transform="translate(232.345703 0)"/>
      <use xlink:href="#DejaVuSans-49" transform="translate(268.429688 0)"/>
      <use xlink:href="#DejaVuSans-52" transform="translate(297.921875 0)"/>
      <use xlink:href="#DejaVuSans-20" transform="translate(367.404297 0)"/>
      <use xlink:href="#DejaVuSans-52" transform="translate(399.191406 0)"/>
      <use xlink:href="#DejaVuSans-65" transform="translate(464.173828 0)"/>
      <use xlink:href="#DejaVuSans-67" transform="translate(525.697266 0)"/>
      <use xlink:href="#DejaVuSans-69" transform="translate(589.173828 0)"/>
      <use xlink:href="#DejaVuSans-6f" transform="translate(616.957031 0)"/>
      <use xlink:href="#DejaVuSans-6e" transform="translate(678.138672 0)"/>
      <use xlink:href="#DejaVuSans-20" transform="translate(741.517578 0)"/>
      <use xlink:href="#DejaVuSans-28" transform="translate(773.304688 0)"/>
      <use xlink:href="#DejaVuSans-4d" transform="translate(812.318359 0)"/>
      <use xlink:href="#DejaVuSans-65" transform="translate(898.597656 0)"/>
      <use xlink:href="#DejaVuSans-6c" transform="translate(960.121094 0)"/>
      <use xlink:href="#DejaVuSans-61" transform="translate(987.904297 0)"/>
      <use xlink:href="#DejaVuSans-6e" transform="translate(1049.183594 0)"/>
      <use xlink:href="#DejaVuSans-69" transform="translate(1112.5625 0)"/>
      <use xlink:href="#DejaVuSans-6e" transform="translate(1140.345703 0)"/>
      <use xlink:href="#DejaVuSans-20" transform="translate(1203.724609 0)"/>
      <use xlink:href="#DejaVuSans-52" transform="translate(1235.511719 0)"/>
      <use xlink:href="#DejaVuSans-65" transform="translate(1300.494141 0)"/>
      <use xlink:href="#DejaVuSans-73" transform="translate(1362.017578 0)"/>
      <use xlink:href="#DejaVuSans-69" transform="translate(1414.117188 0)"/>
      <use xlink:href="#DejaVuSans-73" transform="translate(1441.900391 0)"/>
      <use xlink:href="#DejaVuSans-74" transform="translate(1494 0)"/>
      <use xlink:href="#DejaVuSans-61" transform="translate(1533.208984 0)"/>
      <use xlink:href="#DejaVuSans-6e" transform="translate(1594.488281 0)"/>
      <use xlink:href="#DejaVuSans-74" transform="translate(1657.867188 0)"/>
      <use xlink:href="#DejaVuSans-29" transform="translate(1697.076172 0)"/>
     </g>
    </g>
   </g>
  </g>
 </g>
 <defs>
  <clipPath id="p512be488b3">
   <rect x="50.1525" y="48.624125" width="580.414286" height="328.428"/>
  </clipPath>
 </defs>
</svg>
